<svg
 xmlns="http://www.w3.org/2000/svg"
 xmlns:xlink="http://www.w3.org/1999/xlink"
 width="12px" height="8px">
<path fill-rule="evenodd"  opacity="0.6" fill="rgb(0, 0, 0)"
 d="M2.000,4.000 C2.000,5.862 3.278,7.412 5.000,7.859 C4.679,7.942 4.347,8.000 4.000,8.000 C1.791,8.000 -0.000,6.209 -0.000,4.000 C-0.000,1.791 1.791,-0.000 4.000,-0.000 C4.347,-0.000 4.679,0.058 5.000,0.141 C3.278,0.588 2.000,2.138 2.000,4.000 Z"/>
<path fill-rule="evenodd"  fill="rgb(0, 0, 0)"
 d="M8.000,8.000 C5.791,8.000 4.000,6.209 4.000,4.000 C4.000,1.791 5.791,-0.000 8.000,-0.000 C10.209,-0.000 12.000,1.791 12.000,4.000 C12.000,6.209 10.209,8.000 8.000,8.000 ZM8.000,2.000 C6.895,2.000 6.000,2.895 6.000,4.000 C6.000,5.105 6.895,6.000 8.000,6.000 C9.105,6.000 10.000,5.105 10.000,4.000 C10.000,2.895 9.105,2.000 8.000,2.000 Z"/>
</svg>