<svg xmlns="http://www.w3.org/2000/svg" xmlns:xlink="http://www.w3.org/1999/xlink" style="display: none;">

  <symbol id="new" viewBox="0 0 16 14">
    <path fill-rule="evenodd" d="M6.000 0.000 C6.000 0.000,15.000 0.000,15.000 0.000C15.552 0.000,16.000 0.448,16.000 1.000C16.000 1.000,16.000 13.000,16.000 13.000C16.000 13.552,15.552 14.000,15.000 14.000C15.000 14.000,1.000 14.000,1.000 14.000C0.448 14.000,0.000 13.552,0.000 13.000C0.000 13.000,0.000 6.000,0.000 6.000C0.000 6.000,6.000 6.000,6.000 6.000C6.000 6.000,6.000 0.000,6.000 0.000 ZM0.000 5.000 C0.000 5.000,5.000 0.000,5.000 0.000C5.000 0.000,5.000 5.000,5.000 5.000C5.000 5.000,0.000 5.000,0.000 5.000 Z"/>
  </symbol>

  <symbol id="copy" viewBox="0 0 16 14">
    <path fill-rule="evenodd" d="M15.000 6.000 C15.552 6.000,16.000 6.448,16.000 7.000C16.000 7.000,16.000 13.000,16.000 13.000C16.000 13.552,15.552 14.000,15.000 14.000C15.000 14.000,6.000 14.000,6.000 14.000C5.448 14.000,5.000 13.552,5.000 13.000C5.000 13.000,5.000 7.000,5.000 7.000C5.000 6.448,5.448 6.000,6.000 6.000C6.000 6.000,15.000 6.000,15.000 6.000 ZM11.000 5.000 C11.000 5.000,11.000 1.000,11.000 1.000C11.000 0.448,10.552 0.000,10.000 0.000C10.000 0.000,1.000 0.000,1.000 0.000C0.448 0.000,0.000 0.448,0.000 1.000C0.000 1.000,0.000 7.000,0.000 7.000C0.000 7.552,0.448 8.000,1.000 8.000C1.000 8.000,4.000 8.000,4.000 8.000C4.000 8.000,4.000 6.500,4.000 6.500C4.000 5.395,4.895 5.000,6.000 5.000C6.000 5.000,11.000 5.000,11.000 5.000 Z"/>
  </symbol>

  <symbol id="trash" viewBox="0 0 11 14">
    <path fill-rule="evenodd" d="M10.000 4.000 C10.000 4.000,10.000 12.500,10.000 12.500C10.000 13.052,9.052 14.000,8.500 14.000C8.500 14.000,2.500 14.000,2.500 14.000C1.948 14.000,1.000 13.052,1.000 12.500C1.000 12.500,1.000 4.000,1.000 4.000C1.000 4.000,10.000 4.000,10.000 4.000 ZM3.000 4.000 C3.000 4.000,3.000 12.000,3.000 12.000C3.000 12.000,2.000 12.000,2.000 12.000C2.000 12.000,2.000 4.000,2.000 4.000C2.000 4.000,3.000 4.000,3.000 4.000 ZM7.000 4.000 C7.000 4.000,7.000 12.000,7.000 12.000C7.000 12.000,6.000 12.000,6.000 12.000C6.000 12.000,6.000 4.000,6.000 4.000C6.000 4.000,7.000 4.000,7.000 4.000 ZM5.000 4.000 C5.000 4.000,5.000 12.000,5.000 12.000C5.000 12.000,4.000 12.000,4.000 12.000C4.000 12.000,4.000 4.000,4.000 4.000C4.000 4.000,5.000 4.000,5.000 4.000 ZM9.000 4.000 C9.000 4.000,9.000 12.000,9.000 12.000C9.000 12.000,8.000 12.000,8.000 12.000C8.000 12.000,8.000 4.000,8.000 4.000C8.000 4.000,9.000 4.000,9.000 4.000 ZM6.000 0.000 C6.000 0.000,5.000 0.000,5.000 0.000C3.324 0.000,3.000 2.000,3.000 2.000C3.000 2.000,4.500 2.000,4.500 2.000C4.500 2.000,4.500 1.000,4.500 1.000C4.500 1.000,6.500 1.000,6.500 1.000C6.500 1.000,6.500 2.000,6.500 2.000C6.500 2.000,8.000 2.000,8.000 2.000C8.000 2.000,7.676 0.000,6.000 0.000 ZM0.500 2.000 C0.500 2.000,10.500 2.000,10.500 2.000C10.776 2.000,11.000 2.224,11.000 2.500C11.000 2.500,11.000 3.500,11.000 3.500C11.000 3.776,10.776 4.000,10.500 4.000C10.500 4.000,0.500 4.000,0.500 4.000C0.224 4.000,0.000 3.776,0.000 3.500C0.000 3.500,0.000 2.500,0.000 2.500C0.000 2.224,0.224 2.000,0.500 2.000 Z"/>
  </symbol>

  <symbol id="first" viewBox="0 0 10 14">
  <path fill-rule="evenodd" d="M1.000 0.000 C1.552 0.000,2.000 0.448,2.000 1.000C2.000 1.000,2.000 13.000,2.000 13.000C2.000 13.552,1.552 14.000,1.000 14.000C0.448 14.000,0.000 13.552,0.000 13.000C0.000 13.000,0.000 1.000,0.000 1.000C0.000 0.448,0.448 0.000,1.000 0.000 Z"/>
  <path fill-rule="evenodd" d="M9.000 0.000 C9.552 0.000,10.000 0.448,10.000 1.000C10.000 1.000,10.000 13.000,10.000 13.000C10.000 13.552,9.552 14.000,9.000 14.000C8.448 14.000,2.000 8.052,2.000 7.500C2.000 7.500,2.000 6.000,2.000 6.000C2.000 5.448,8.448 0.000,9.000 0.000 Z"/>
  </symbol>

  <symbol id="play" viewBox="0 0 16 14">
  <path fill-rule="evenodd" d="M2.095 0.845 C2.095 0.845,15.312 6.183,15.312 6.183C16.000 6.525,16.000 7.444,15.312 7.771C15.312 7.771,2.095 13.109,2.095 13.109C2.095 13.109,0.006 14.000,0.006 12.370C0.006 12.370,0.006 1.583,0.006 1.583C0.006 0.000,2.095 0.845,2.095 0.845 Z"/>
  </symbol>

  <symbol id="last" viewBox="0 0 10 14">
  <path fill-rule="evenodd" d="M9.000 0.000 C8.448 0.000,8.000 0.448,8.000 1.000C8.000 1.000,8.000 13.000,8.000 13.000C8.000 13.552,8.448 14.000,9.000 14.000C9.552 14.000,10.000 13.552,10.000 13.000C10.000 13.000,10.000 1.000,10.000 1.000C10.000 0.448,9.552 0.000,9.000 0.000 Z"/>
  <path fill-rule="evenodd" d="M1.000 0.000 C0.448 0.000,0.000 0.448,0.000 1.000C0.000 1.000,0.000 13.000,0.000 13.000C0.000 13.552,0.448 14.000,1.000 14.000C1.552 14.000,8.000 8.552,8.000 8.000C8.000 8.000,8.000 6.000,8.000 6.000C8.000 5.448,1.552 0.000,1.000 0.000 Z"/>
  </symbol>

  <symbol id="loop" viewBox="0 0 12 14">
  <path fill-rule="evenodd" d="M0.500 0.000 C0.500 0.000,9.500 0.000,9.500 0.000C9.776 0.000,10.000 0.224,10.000 0.500C10.000 0.500,10.000 5.500,10.000 5.500C10.000 5.500,8.000 5.500,8.000 5.500C8.000 5.500,8.000 2.000,8.000 2.000C8.000 2.000,2.000 2.000,2.000 2.000C2.000 2.000,2.000 12.000,2.000 12.000C2.000 12.000,8.000 12.000,8.000 12.000C8.000 12.000,8.000 9.250,8.000 9.250C8.000 9.250,10.000 9.250,10.000 9.250C10.000 9.250,10.000 13.500,10.000 13.500C10.000 13.776,9.776 14.000,9.500 14.000C9.500 14.000,0.500 14.000,0.500 14.000C0.224 14.000,0.000 13.776,0.000 13.500C0.000 13.500,0.000 0.500,0.000 0.500C0.000 0.224,0.224 0.000,0.500 0.000 Z"/>
  <path fill-rule="evenodd" d="M6.000 5.000 C6.000 5.000,12.000 5.000,12.000 5.000C12.000 5.000,9.000 8.000,9.000 8.000C9.000 8.000,6.000 5.000,6.000 5.000 Z"/>
  </symbol>

<symbol id="plus" viewBox="0 0 14 14">
<path fill-rule="evenodd" d="M1.000 6.000 C1.000 6.000,13.000 6.000,13.000 6.000C13.552 6.000,14.000 6.448,14.000 7.000C14.000 7.552,13.552 8.000,13.000 8.000C13.000 8.000,1.000 8.000,1.000 8.000C0.448 8.000,0.000 7.552,0.000 7.000C0.000 6.448,0.448 6.000,1.000 6.000 Z"/>
<path fill-rule="evenodd" d="M8.000 1.000 C8.000 1.000,8.000 13.000,8.000 13.000C8.000 13.552,7.552 14.000,7.000 14.000C6.448 14.000,6.000 13.552,6.000 13.000C6.000 13.000,6.000 1.000,6.000 1.000C6.000 0.448,6.448 0.000,7.000 0.000C7.552 0.000,8.000 0.448,8.000 1.000 Z"/>
</symbol>

<!-- TOOLS -->

<symbol id="pointer" viewBox="0 0 15.5 21.5">
<path fill-rule="evenodd" d="M0.000 21.500 C0.000 21.500,0.000 0.000,0.000 0.000C0.000 0.000,15.500 15.500,15.500 15.500C15.500 15.500,6.000 15.500,6.000 15.500C6.000 15.500,0.000 21.500,0.000 21.500 Z"/>
</symbol>

<!-- <symbol id="pencil" viewBox="0 0 19 19">
  <path fill-rule="evenodd" d="M9.509,15.809 L0.062,18.963 L3.211,9.501 L12.658,0.040 L18.957,6.347 L9.509,15.809 ZM3.998,10.290 L2.424,15.020 L3.211,15.809 L3.998,16.597 L8.722,15.020 L3.998,10.290 Z"/>
</symbol> -->

<symbol id="pencil" viewBox="0 0 23.5 23.5">
<path fill-rule="evenodd" d="M4.525 12.000 C4.525 12.000,0.500 23.500,0.500 23.500C0.500 23.500,12.000 19.475,12.000 19.475C12.000 19.475,23.500 7.975,23.500 7.975C23.500 7.975,16.025 0.500,16.025 0.500C16.025 0.500,4.525 12.000,4.525 12.000 ZM5.675 13.150 C5.675 13.150,3.950 18.325,3.950 18.325C3.950 18.325,5.675 20.050,5.675 20.050C5.675 20.050,10.850 18.325,10.850 18.325C10.850 18.325,5.675 13.150,5.675 13.150 Z"/>
</symbol>

<symbol id="pen" viewBox="0 0 26 20">
  <path fill-rule="evenodd" d="M22.250,9.250 L21.500,8.500 L20.250,12.250 L0.250,20.000 L16.000,4.250 L17.250,4.250 L16.500,3.500 L20.000,0.000 L25.750,5.750 L22.250,9.250 ZM18.250,5.250 L16.750,5.250 L5.000,17.000 L19.250,11.500 L20.500,7.500 L18.250,5.250 Z"/>
</symbol>

<symbol id="line" viewBox="0 0 23 23">
<path fill-rule="evenodd" d="M0.247 21.339 C0.247 21.339,21.339 0.247,21.339 0.247C21.339 0.247,22.753 1.661,22.753 1.661C22.753 1.661,1.661 22.753,1.661 22.753C1.661 22.753,0.247 21.339,0.247 21.339 Z"/>
</symbol>

<symbol id="polygon" viewBox="0 0 24.5 23">
<path fill-rule="evenodd" d="M0.500 6.000 C0.500 6.000,14.000 10.500,14.000 10.500C14.000 10.500,24.500 0.000,24.500 0.000C24.500 0.000,24.500 18.000,24.500 18.000C24.500 18.000,9.000 23.000,9.000 23.000C9.000 23.000,0.500 6.000,0.500 6.000 ZM4.500 9.500 C4.500 9.500,14.500 13.000,14.500 13.000C14.500 13.000,22.500 5.000,22.500 5.000C22.500 5.000,22.500 16.500,22.500 16.500C22.500 16.500,10.000 20.500,10.000 20.500C10.000 20.500,4.500 9.500,4.500 9.500 Z"/>
</symbol>

<symbol id="hand" viewBox="0 0 24 20.5">
<path fill-rule="evenodd" d="M8.444 20.500 C8.444 20.500,18.638 20.500,18.638 20.500C18.638 20.500,18.668 18.641,19.000 17.500C19.119 17.091,19.460 16.667,20.103 15.670C21.461 13.566,21.999 12.364,22.425 11.297C23.405 8.850,23.466 8.000,23.466 8.000C23.466 8.000,23.757 6.587,22.393 6.385C21.450 6.245,21.320 6.923,21.320 6.923C21.320 6.923,20.000 9.500,20.000 9.500C20.000 9.500,19.677 9.923,19.174 9.654C18.671 9.385,18.638 9.115,18.638 9.115C18.638 9.115,19.174 3.192,19.174 3.192C19.174 3.192,19.059 2.310,18.101 2.115C16.837 1.858,16.492 3.192,16.492 3.192C16.492 3.192,15.955 6.962,15.955 6.962C15.955 6.962,15.385 8.106,14.882 8.038C14.379 7.971,14.346 7.500,14.346 7.500C14.346 7.500,14.346 1.577,14.346 1.577C14.346 1.577,14.100 0.478,12.736 0.500C11.728 0.517,11.320 1.577,11.320 1.577C11.320 1.577,11.127 7.500,11.127 7.500C11.127 7.500,11.227 7.938,10.590 8.038C9.953 8.139,9.839 7.598,9.839 7.598C9.839 7.598,8.444 3.192,8.444 3.192C8.444 3.192,8.075 2.317,6.835 2.654C5.730 2.954,5.654 4.147,5.654 4.147C5.654 4.147,7.371 10.231,7.371 10.231C7.371 10.231,7.804 11.719,7.500 12.000C7.128 12.345,6.298 11.808,6.298 11.808C6.298 11.808,4.652 10.115,4.652 10.115C4.652 10.115,2.542 8.715,1.469 9.577C0.396 10.438,1.969 11.769,1.969 11.769C1.969 11.769,2.274 12.337,3.986 14.299C5.664 16.223,7.753 18.047,7.322 17.572C8.246 18.590,8.444 20.500,8.444 20.500 Z"/>
</symbol>

<symbol id="zoom" viewBox="0 0 23 23">
<path fill-rule="evenodd" d="M13.000 15.500 C13.000 15.500,15.500 13.000,15.500 13.000C15.500 13.000,23.000 20.500,23.000 20.500C23.000 20.500,20.500 23.000,20.500 23.000C20.500 23.000,13.000 15.500,13.000 15.500 Z"/>
<path fill-rule="evenodd" d="M8.500 0.000 C13.194 0.000,17.000 3.806,17.000 8.500C17.000 13.194,13.194 17.000,8.500 17.000C3.806 17.000,0.000 13.194,0.000 8.500C0.000 3.806,3.806 0.000,8.500 0.000 ZM8.500 2.000 C12.090 2.000,15.000 4.910,15.000 8.500C15.000 12.090,12.090 15.000,8.500 15.000C4.910 15.000,2.000 12.090,2.000 8.500C2.000 4.910,4.910 2.000,8.500 2.000 Z"/>
</symbol>

<symbol id="onion" viewBox="0 0 16 12">
  <path fill-rule="evenodd" d="M2.462 6.000 C2.462 1.934,5.846 0.000,5.846 0.000C2.617 0.000,0.000 2.686,0.000 6.000C0.000 9.314,2.617 12.000,5.846 12.000C5.846 12.000,2.462 10.066,2.462 6.000 ZM10.154 0.000 C13.383 0.000,16.000 2.686,16.000 6.000C16.000 9.314,13.383 12.000,10.154 12.000C6.925 12.000,4.308 9.314,4.308 6.000C4.308 2.686,6.925 0.000,10.154 0.000 ZM10.154 2.526 C12.023 2.526,13.538 4.082,13.538 6.000C13.538 7.918,12.023 9.474,10.154 9.474C8.285 9.474,6.769 7.918,6.769 6.000C6.769 4.082,8.285 2.526,10.154 2.526 Z"/>
</symbol>

<!-- UI controls -->

<symbol id="tick" viewBox="0 0 10 8">
<path fill-rule="evenodd" d="M-0.000,4.000 L4.000,8.000 L10.000,2.000 L8.000,-0.000 L4.000,4.000 L2.000,2.000 L-0.000,4.000 Z"/>
</symbol>

<symbol id="nullcolor" viewBox="0 0 8 8">
<path fill-rule="evenodd" d="M4.000 0.000 C6.209 0.000,8.000 1.791,8.000 4.000C8.000 6.209,6.209 8.000,4.000 8.000C1.791 8.000,0.000 6.209,0.000 4.000C0.000 1.791,1.791 0.000,4.000 0.000 ZM4.000 1.000 C5.657 1.000,7.000 2.343,7.000 4.000C7.000 5.657,5.657 7.000,4.000 7.000C2.343 7.000,1.000 5.657,1.000 4.000C1.000 2.343,2.343 1.000,4.000 1.000 Z"/>
</symbol>

</svg>
