<svg
 xmlns="http://www.w3.org/2000/svg"
 xmlns:xlink="http://www.w3.org/1999/xlink"
 width="19px" height="19px">
<path fill-rule="evenodd"  fill="rgb(0, 0, 0)"
 d="M12.732,11.111 L18.389,16.768 L16.268,18.889 L10.611,13.232 L11.628,12.216 C10.392,13.313 8.783,14.000 7.000,14.000 C3.134,14.000 0.000,10.866 0.000,7.000 C0.000,3.134 3.134,0.000 7.000,0.000 C10.866,0.000 14.000,3.134 14.000,7.000 C14.000,8.783 13.313,10.392 12.216,11.628 L12.732,11.111 ZM7.000,2.000 C4.239,2.000 2.000,4.239 2.000,7.000 C2.000,9.761 4.239,12.000 7.000,12.000 C9.761,12.000 12.000,9.761 12.000,7.000 C12.000,4.239 9.761,2.000 7.000,2.000 Z"/>
</svg>
