<svg xmlns="http://www.w3.org/2000/svg" xmlns:xlink="http://www.w3.org/1999/xlink" display="none">

  <symbol id="first" viewBox="0 0 192 192">
  <path fill-rule="evenodd" d="M0.000 16.000 L32.000 16.000 L32.000 176.000 L0.000 176.000 Z"/>
  <path fill-rule="evenodd" d="M192.000 16.000 L192.000 176.000 L32.000 96.000 Z"/>
  </symbol>

  <symbol id="play" viewBox="0 0 192 192">
  <path fill-rule="evenodd" d="M0.000 0.000 L192.000 96.000 L0.000 192.000 Z"/>
  </symbol>

  <symbol id="last" viewBox="0 0 192 192">
  <path fill-rule="evenodd" d="M0.000 16.000 L160.000 96.000 L0.000 176.000 Z"/>
  <path fill-rule="evenodd" d="M160.000 16.000 L192.000 16.000 L192.000 176.000 L160.000 176.000 Z"/>
  </symbol>

  <symbol id="loop" viewBox="0 0 192 192">
  <path fill-rule="evenodd" d="M192.000 64.000 L168.000 64.000 L168.000 16.000 L8.000 16.000 L8.000 176.000 L167.000 176.000 L167.000 112.000 L144.000 112.000 L144.000 152.000 L32.000 152.000 L32.000 40.000 L144.000 40.000 L144.000 64.000 L120.000 64.000 L156.000 100.000 Z"/>
  </symbol>

  <symbol id="onion" viewBox="0 0 192 192">
  <path fill-rule="evenodd" opacity="0.5" d="M120.000 40.000 C116.091 40.000,112.251 40.294,108.492 40.836 C99.688 30.537,86.611 24.000,72.000 24.000 C45.490 24.000,24.000 45.490,24.000 72.000 C24.000 86.611,30.537 99.688,40.836 108.492 C40.294 112.251,40.000 116.091,40.000 120.000 C40.000 125.984,40.678 131.806,41.923 137.415 C17.183 126.020,-0.000 101.024,-0.000 72.000 C-0.000 32.236,32.236 -0.000,72.000 -0.000 C101.024 -0.000,126.020 17.183,137.415 41.923 C131.806 40.678,125.984 40.000,120.000 40.000 Z"/>
  <path fill-rule="evenodd" d="M120.000 48.000 C159.764 48.000,192.000 80.236,192.000 120.000 C192.000 159.764,159.764 192.000,120.000 192.000 C80.236 192.000,48.000 159.764,48.000 120.000 C48.000 80.236,80.236 48.000,120.000 48.000 ZM120.000 72.000 C146.510 72.000,168.000 93.490,168.000 120.000 C168.000 146.510,146.510 168.000,120.000 168.000 C93.490 168.000,72.000 146.510,72.000 120.000 C72.000 93.490,93.490 72.000,120.000 72.000 Z"/>
  </symbol>

  <symbol id="pencil" viewBox="0 0 192 192">
  <path fill-rule="evenodd" d="M96.000 159.000 L192.000 63.000 L129.000 -0.000 L33.000 96.000 L1.000 183.000 C1.000 183.000,-0.164 187.836,2.000 190.000 C4.330 192.330,9.000 191.000,9.000 191.000 ZM24.000 153.562 L41.719 105.000 L87.000 150.281 L38.437 168.000 Z"/>
  </symbol>

  <symbol id="line" viewBox="0 0 192 192">
  <path fill-rule="evenodd" d="M178.000 1.000 L191.000 14.000 L14.000 191.000 L1.000 178.000 Z"/>
  </symbol>

  <symbol id="polygon" viewBox="0 0 192 192">
  <path fill-rule="evenodd" d="M0.000 90.000 L109.000 90.000 L192.000 7.000 L192.000 147.000 L76.000 192.000 ZM82.000 171.000 L174.000 135.000 L174.000 50.000 L116.000 108.000 L36.000 108.000 Z"/>
  </symbol>

  <symbol id="pointer" viewBox="0 0 192 192">
  <path fill-rule="evenodd" d="M36.000 192.000 L36.000 0.000 L180.000 144.000 L100.000 144.000 Z"/>
  </symbol>

  <symbol id="hand" viewBox="0 0 192 192">
  <path fill-rule="evenodd" d="M107.433 179.007 C140.967 179.007,155.369 152.891,162.759 139.777 C177.987 112.751,191.556 74.160,191.556 74.160 C191.556 74.160,194.134 65.461,187.060 61.799 C179.987 58.136,173.181 64.947,173.181 64.947 L163.448 85.422 C163.448 85.422,158.616 90.340,153.901 87.789 C149.185 85.239,149.526 80.134,150.000 78.000 C152.708 65.808,159.000 39.000,159.000 39.000 C159.000 39.000,160.000 26.174,150.336 23.819 C139.605 21.203,136.000 33.000,136.000 33.000 L127.000 68.000 C127.000 68.000,125.640 74.826,120.000 74.000 C115.701 73.371,115.000 67.000,115.000 67.000 L115.000 23.000 C115.000 23.000,114.181 10.000,101.606 10.000 C89.031 10.000,88.000 22.000,88.000 22.000 L88.000 67.000 C88.000 67.000,88.226 72.215,83.000 74.000 C77.545 75.864,74.881 70.720,74.881 70.720 L62.937 34.601 C62.937 34.601,56.754 25.286,47.585 28.425 C38.416 31.565,39.051 42.767,39.051 42.767 L53.750 93.243 C53.750 93.243,57.454 105.972,54.854 108.378 C51.668 111.327,44.563 106.733,44.563 106.733 L30.470 92.256 C30.470 92.256,12.409 80.280,3.222 87.650 C-5.965 95.020,7.503 106.404,7.503 106.404 C7.503 106.404,10.675 110.789,24.766 128.047 C56.468 166.876,73.900 179.007,107.433 179.007 Z"/>
  </symbol>

  <symbol id="zoom" viewBox="0 0 192 192">
  <path fill-rule="evenodd" d="M72.000 0.000 C111.764 0.000,144.000 32.236,144.000 72.000 C144.000 111.764,111.764 144.000,72.000 144.000 C32.236 144.000,0.000 111.764,0.000 72.000 C0.000 32.236,32.236 0.000,72.000 0.000 ZM72.000 14.000 C104.033 14.000,130.000 39.967,130.000 72.000 C130.000 104.033,104.033 130.000,72.000 130.000 C39.967 130.000,14.000 104.033,14.000 72.000 C14.000 39.967,39.967 14.000,72.000 14.000 Z"/>
  <path fill-rule="evenodd" d="M130.029 107.402 L186.598 163.971 C192.846 170.219,192.846 180.350,186.598 186.598 C180.350 192.846,170.219 192.846,163.971 186.598 L107.402 130.029 Z"/>
  </symbol>

  <!-- UI controls -->

  <symbol id="tick" viewBox="0 0 10 8">
  <path fill-rule="evenodd" d="M-0.000,4.000 L4.000,8.000 L10.000,2.000 L8.000,-0.000 L4.000,4.000 L2.000,2.000 L-0.000,4.000 Z"/>
  </symbol>

  <symbol id="slash" viewBox="0 0 128 128">
  <path fill-rule="evenodd" d="M110.000 0.000 C110.000 0.000,128.000 0.000,128.000 0.000C128.000 0.000,18.000 128.000,18.000 128.000C18.000 128.000,0.000 128.000,0.000 128.000C0.000 128.000,110.000 0.000,110.000 0.000 Z"/>
  </symbol>

  <symbol id="plus" viewBox="0 0 128 128">
  <path fill-rule="evenodd" d="M114.000 72.000 C114.000 72.000,72.000 72.000,72.000 72.000C72.000 72.000,72.000 114.000,72.000 114.000C72.000 117.314,69.314 120.000,66.000 120.000C66.000 120.000,62.000 120.000,62.000 120.000C58.686 120.000,56.000 117.314,56.000 114.000C56.000 114.000,56.000 72.000,56.000 72.000C56.000 72.000,14.000 72.000,14.000 72.000C10.686 72.000,8.000 69.314,8.000 66.000C8.000 66.000,8.000 62.000,8.000 62.000C8.000 58.686,10.686 56.000,14.000 56.000C14.000 56.000,56.000 56.000,56.000 56.000C56.000 56.000,56.000 14.000,56.000 14.000C56.000 10.686,58.686 8.000,62.000 8.000C62.000 8.000,66.000 8.000,66.000 8.000C69.314 8.000,72.000 10.686,72.000 14.000C72.000 14.000,72.000 56.000,72.000 56.000C72.000 56.000,114.000 56.000,114.000 56.000C117.314 56.000,120.000 58.686,120.000 62.000C120.000 62.000,120.000 66.000,120.000 66.000C120.000 69.314,117.314 72.000,114.000 72.000 Z"/>
  </symbol>

  <symbol id="checker" viewBox="0 0 192 192">
  <path fill-rule="evenodd" d="M0.000 0.000 L48.000 0.000 L48.000 48.000 L0.000 48.000 Z"/>
  <path fill-rule="evenodd" d="M48.000 48.000 L96.000 48.000 L96.000 96.000 L48.000 96.000 Z"/>
  <path fill-rule="evenodd" d="M96.000 0.000 L144.000 0.000 L144.000 48.000 L96.000 48.000 Z"/>
  <path fill-rule="evenodd" d="M96.000 96.000 L144.000 96.000 L144.000 144.000 L96.000 144.000 Z"/>
  <path fill-rule="evenodd" d="M144.000 48.000 L192.000 48.000 L192.000 96.000 L144.000 96.000 Z"/>
  <path fill-rule="evenodd" d="M0.000 96.000 L48.000 96.000 L48.000 144.000 L0.000 144.000 Z"/>
  <path fill-rule="evenodd" d="M48.000 144.000 L96.000 144.000 L96.000 192.000 L48.000 192.000 Z"/>
  <path fill-rule="evenodd" d="M144.000 144.000 L192.000 144.000 L192.000 192.000 L144.000 192.000 Z"/>
  </symbol>

  <symbol id="export" viewBox="0 0 192 192">
  <path fill-rule="evenodd" d="M112.000 104.000 L176.000 104.000 L176.000 16.000 L16.000 16.000 L16.000 104.000 L80.000 104.000 L80.000 120.000 L0.000 120.000 L0.000 0.000 L192.000 0.000 L192.000 120.000 L112.000 120.000 Z"/>
  <path fill-rule="evenodd" d="M80.000 64.000 L96.000 64.000 L96.000 167.000 L120.000 143.000 L131.000 154.000 C131.000 154.000,108.120 176.880,102.000 183.000 C96.000 189.000,93.438 192.000,88.000 192.000 C82.563 192.000,80.000 189.000,74.000 183.000 C67.750 176.750,45.000 154.000,45.000 154.000 L56.000 143.000 L80.000 167.000 Z"/>
  </symbol>

  <symbol id="settings" viewBox="0 0 192 192">
  <path fill-rule="evenodd" d="M56.000 40.000 L168.000 40.000 L168.000 56.000 L56.000 56.000 Z"/>
  <path fill-rule="evenodd" d="M56.000 136.000 L168.000 136.000 L168.000 152.000 L56.000 152.000 Z"/>
  <path fill-rule="evenodd" d="M56.000 88.000 L168.000 88.000 L168.000 104.000 L56.000 104.000 Z"/>
  <path fill-rule="evenodd" d="M24.000 40.000 L40.000 40.000 L40.000 56.000 L24.000 56.000 Z"/>
  <path fill-rule="evenodd" d="M24.000 88.000 L40.000 88.000 L40.000 104.000 L24.000 104.000 Z"/>
  <path fill-rule="evenodd" d="M24.000 136.000 L40.000 136.000 L40.000 152.000 L24.000 152.000 Z"/>
  </symbol>

</svg>
