<svg xmlns="http://www.w3.org/2000/svg" xmlns:xlink="http://www.w3.org/1999/xlink" style="display: none;">

  <symbol id="new" viewBox="0 0 16 14">
    <path fill-rule="evenodd" d="M6.000 0.000 C6.000 0.000,15.000 0.000,15.000 0.000C15.552 0.000,16.000 0.448,16.000 1.000C16.000 1.000,16.000 13.000,16.000 13.000C16.000 13.552,15.552 14.000,15.000 14.000C15.000 14.000,1.000 14.000,1.000 14.000C0.448 14.000,0.000 13.552,0.000 13.000C0.000 13.000,0.000 6.000,0.000 6.000C0.000 6.000,6.000 6.000,6.000 6.000C6.000 6.000,6.000 0.000,6.000 0.000 ZM0.000 5.000 C0.000 5.000,5.000 0.000,5.000 0.000C5.000 0.000,5.000 5.000,5.000 5.000C5.000 5.000,0.000 5.000,0.000 5.000 Z"/>
  </symbol>

  <symbol id="copy" viewBox="0 0 16 14">
    <path fill-rule="evenodd" d="M15.000 6.000 C15.552 6.000,16.000 6.448,16.000 7.000C16.000 7.000,16.000 13.000,16.000 13.000C16.000 13.552,15.552 14.000,15.000 14.000C15.000 14.000,6.000 14.000,6.000 14.000C5.448 14.000,5.000 13.552,5.000 13.000C5.000 13.000,5.000 7.000,5.000 7.000C5.000 6.448,5.448 6.000,6.000 6.000C6.000 6.000,15.000 6.000,15.000 6.000 ZM11.000 5.000 C11.000 5.000,11.000 1.000,11.000 1.000C11.000 0.448,10.552 0.000,10.000 0.000C10.000 0.000,1.000 0.000,1.000 0.000C0.448 0.000,0.000 0.448,0.000 1.000C0.000 1.000,0.000 7.000,0.000 7.000C0.000 7.552,0.448 8.000,1.000 8.000C1.000 8.000,4.000 8.000,4.000 8.000C4.000 8.000,4.000 6.500,4.000 6.500C4.000 5.395,4.895 5.000,6.000 5.000C6.000 5.000,11.000 5.000,11.000 5.000 Z"/>
  </symbol>

  <symbol id="trash" viewBox="0 0 11 14">
    <path fill-rule="evenodd" d="M10.000 4.000 C10.000 4.000,10.000 12.500,10.000 12.500C10.000 13.052,9.052 14.000,8.500 14.000C8.500 14.000,2.500 14.000,2.500 14.000C1.948 14.000,1.000 13.052,1.000 12.500C1.000 12.500,1.000 4.000,1.000 4.000C1.000 4.000,10.000 4.000,10.000 4.000 ZM3.000 4.000 C3.000 4.000,3.000 12.000,3.000 12.000C3.000 12.000,2.000 12.000,2.000 12.000C2.000 12.000,2.000 4.000,2.000 4.000C2.000 4.000,3.000 4.000,3.000 4.000 ZM7.000 4.000 C7.000 4.000,7.000 12.000,7.000 12.000C7.000 12.000,6.000 12.000,6.000 12.000C6.000 12.000,6.000 4.000,6.000 4.000C6.000 4.000,7.000 4.000,7.000 4.000 ZM5.000 4.000 C5.000 4.000,5.000 12.000,5.000 12.000C5.000 12.000,4.000 12.000,4.000 12.000C4.000 12.000,4.000 4.000,4.000 4.000C4.000 4.000,5.000 4.000,5.000 4.000 ZM9.000 4.000 C9.000 4.000,9.000 12.000,9.000 12.000C9.000 12.000,8.000 12.000,8.000 12.000C8.000 12.000,8.000 4.000,8.000 4.000C8.000 4.000,9.000 4.000,9.000 4.000 ZM6.000 0.000 C6.000 0.000,5.000 0.000,5.000 0.000C3.324 0.000,3.000 2.000,3.000 2.000C3.000 2.000,4.500 2.000,4.500 2.000C4.500 2.000,4.500 1.000,4.500 1.000C4.500 1.000,6.500 1.000,6.500 1.000C6.500 1.000,6.500 2.000,6.500 2.000C6.500 2.000,8.000 2.000,8.000 2.000C8.000 2.000,7.676 0.000,6.000 0.000 ZM0.500 2.000 C0.500 2.000,10.500 2.000,10.500 2.000C10.776 2.000,11.000 2.224,11.000 2.500C11.000 2.500,11.000 3.500,11.000 3.500C11.000 3.776,10.776 4.000,10.500 4.000C10.500 4.000,0.500 4.000,0.500 4.000C0.224 4.000,0.000 3.776,0.000 3.500C0.000 3.500,0.000 2.500,0.000 2.500C0.000 2.224,0.224 2.000,0.500 2.000 Z"/>
  </symbol>

  <symbol id="first" viewBox="0 0 10 9">
    <path fill-rule="evenodd" d="M9.500 0.000 C9.500 0.000,3.500 3.500,3.500 3.500C3.224 3.500,3.000 3.724,3.000 4.000C3.000 4.000,3.000 5.000,3.000 5.000C3.000 5.276,3.224 5.500,3.500 5.500C3.500 5.500,9.500 9.000,9.500 9.000C9.776 9.000,10.000 8.776,10.000 8.500C10.000 8.500,10.000 0.500,10.000 0.500C10.000 0.224,9.776 0.000,9.500 0.000 ZM0.500 0.000 C0.500 0.000,1.500 0.000,1.500 0.000C1.776 0.000,2.000 0.224,2.000 0.500C2.000 0.500,2.000 8.500,2.000 8.500C2.000 8.776,1.776 9.000,1.500 9.000C1.500 9.000,0.500 9.000,0.500 9.000C0.224 9.000,0.000 8.776,0.000 8.500C0.000 8.500,0.000 0.500,0.000 0.500C0.000 0.224,0.224 0.000,0.500 0.000 Z"/>
  </symbol>

<symbol id="play" viewBox="0 0 11 9">
  <path fill-rule="evenodd" d="M0.500 0.000 C0.500 0.000,10.500 3.500,10.500 3.500C10.776 3.500,11.000 3.724,11.000 4.000C11.000 4.000,11.000 5.000,11.000 5.000C11.000 5.276,10.776 5.500,10.500 5.500C10.500 5.500,0.500 9.000,0.500 9.000C0.224 9.000,0.000 8.776,0.000 8.500C0.000 8.500,0.000 0.500,0.000 0.500C0.000 0.224,0.224 0.000,0.500 0.000 Z"/>
</symbol>

<symbol id="last" viewBox="0 0 10 9">
  <path fill-rule="evenodd" d="M0.500 0.000 C0.500 0.000,6.500 3.500,6.500 3.500C6.776 3.500,7.000 3.724,7.000 4.000C7.000 4.000,7.000 5.000,7.000 5.000C7.000 5.276,6.776 5.500,6.500 5.500C6.500 5.500,0.500 9.000,0.500 9.000C0.224 9.000,0.000 8.776,0.000 8.500C0.000 8.500,0.000 0.500,0.000 0.500C0.000 0.224,0.224 0.000,0.500 0.000 ZM9.500 0.000 C9.500 0.000,8.500 0.000,8.500 0.000C8.224 0.000,8.000 0.224,8.000 0.500C8.000 0.500,8.000 8.500,8.000 8.500C8.000 8.776,8.224 9.000,8.500 9.000C8.500 9.000,9.500 9.000,9.500 9.000C9.776 9.000,10.000 8.776,10.000 8.500C10.000 8.500,10.000 0.500,10.000 0.500C10.000 0.224,9.776 0.000,9.500 0.000 Z"/>
</symbol>

<symbol id="loop" viewBox="0 0 12 12">
  <path fill-rule="evenodd" d="M8.000 9.500 C8.000 9.776,7.776 10.000,7.500 10.000C7.500 10.000,2.500 10.000,2.500 10.000C2.224 10.000,2.000 9.776,2.000 9.500C2.000 9.500,2.000 2.500,2.000 2.500C2.000 2.224,2.224 2.000,2.500 2.000C2.500 2.000,7.500 2.000,7.500 2.000C7.776 2.000,8.000 2.224,8.000 2.500C8.000 2.500,8.000 4.000,8.000 4.000C8.000 4.000,10.000 4.000,10.000 4.000C10.000 4.000,10.000 1.000,10.000 1.000C10.000 0.448,9.552 0.000,9.000 0.000C9.000 0.000,1.000 0.000,1.000 0.000C0.448 0.000,0.000 0.448,0.000 1.000C0.000 1.000,0.000 11.000,0.000 11.000C0.000 11.552,0.448 12.000,1.000 12.000C1.000 12.000,9.000 12.000,9.000 12.000C9.552 12.000,10.000 11.552,10.000 11.000C10.000 11.000,10.000 8.000,10.000 8.000C10.000 8.000,8.000 8.000,8.000 8.000C8.000 8.000,8.000 9.500,8.000 9.500 ZM6.000 4.000 C6.000 4.000,12.000 4.000,12.000 4.000C12.000 4.000,9.000 7.000,9.000 7.000C9.000 7.000,6.000 4.000,6.000 4.000 Z"/>
</symbol>

<symbol id="tick" viewBox="0 0 10 8">
  <path fill-rule="evenodd" d="M-0.000,4.000 L4.000,8.000 L10.000,2.000 L8.000,-0.000 L4.000,4.000 L2.000,2.000 L-0.000,4.000 Z"/>
</symbol>

<!-- TOOLS -->

<symbol id="pointer" viewBox="0 0 11 17">
 <path fill-rule="evenodd" d="M-0.000,16.000 L-0.000,-0.000 L11.000,11.000 L6.000,11.000 L8.000,16.000 L6.000,17.000 L4.000,12.000 L-0.000,16.000 Z"/>
</symbol>

<!-- <symbol id="pencil" viewBox="0 0 19 19">
  <path fill-rule="evenodd" d="M9.509,15.809 L0.062,18.963 L3.211,9.501 L12.658,0.040 L18.957,6.347 L9.509,15.809 ZM3.998,10.290 L2.424,15.020 L3.211,15.809 L3.998,16.597 L8.722,15.020 L3.998,10.290 Z"/>
</symbol> -->

<symbol id="pencil" viewBox="0 0 20 20">
<path fill-rule="evenodd" d="M3.500 10.000 C3.500 10.000,0.000 20.000,0.000 20.000C0.000 20.000,10.000 16.500,10.000 16.500C10.000 16.500,20.000 6.500,20.000 6.500C20.000 6.500,13.500 0.000,13.500 0.000C13.500 0.000,3.500 10.000,3.500 10.000 ZM4.500 11.000 C4.500 11.000,3.000 15.500,3.000 15.500C3.000 15.500,4.500 17.000,4.500 17.000C4.500 17.000,9.000 15.500,9.000 15.500C9.000 15.500,4.500 11.000,4.500 11.000 Z"/>
</symbol>

<symbol id="pen" viewBox="0 0 26 20">
  <path fill-rule="evenodd" d="M22.250,9.250 L21.500,8.500 L20.250,12.250 L0.250,20.000 L16.000,4.250 L17.250,4.250 L16.500,3.500 L20.000,0.000 L25.750,5.750 L22.250,9.250 ZM18.250,5.250 L16.750,5.250 L5.000,17.000 L19.250,11.500 L20.500,7.500 L18.250,5.250 Z"/>
</symbol>

<symbol id="line" viewBox="0 0 20 20">
<path fill-rule="evenodd" d="M0.000 18.500 C0.000 18.500,18.500 0.000,18.500 0.000C18.500 0.000,20.000 1.500,20.000 1.500C20.000 1.500,1.500 20.000,1.500 20.000C1.500 20.000,0.000 18.500,0.000 18.500 Z"/>
</symbol>

<symbol id="polygon" viewBox="0 0 22 20">
<path fill-rule="evenodd" d="M0.000 5.000 C0.000 5.000,11.500 10.000,11.500 10.000C11.500 10.000,22.000 0.000,22.000 0.000C22.000 0.000,19.000 20.000,19.000 20.000C19.000 20.000,4.500 17.500,4.500 17.500C4.500 17.500,0.000 5.000,0.000 5.000 ZM3.500 8.500 C3.500 8.500,12.000 12.500,12.000 12.500C12.000 12.500,19.000 5.500,19.000 5.500C19.000 5.500,17.000 17.500,17.000 17.500C17.000 17.500,6.000 15.500,6.000 15.500C6.000 15.500,3.500 8.500,3.500 8.500 Z"/>
</symbol>

<symbol id="hand" viewBox="0 0 24 20.5">
<path fill-rule="evenodd" d="M8.444 20.500 C8.444 20.500,18.638 20.500,18.638 20.500C18.638 20.500,18.668 18.641,19.000 17.500C19.119 17.091,19.460 16.667,20.103 15.670C21.461 13.566,21.999 12.364,22.425 11.297C23.405 8.850,23.466 8.000,23.466 8.000C23.466 8.000,23.757 6.587,22.393 6.385C21.450 6.245,21.320 6.923,21.320 6.923C21.320 6.923,20.000 9.500,20.000 9.500C20.000 9.500,19.677 9.923,19.174 9.654C18.671 9.385,18.638 9.115,18.638 9.115C18.638 9.115,19.174 3.192,19.174 3.192C19.174 3.192,19.059 2.310,18.101 2.115C16.837 1.858,16.492 3.192,16.492 3.192C16.492 3.192,15.955 6.962,15.955 6.962C15.955 6.962,15.385 8.106,14.882 8.038C14.379 7.971,14.346 7.500,14.346 7.500C14.346 7.500,14.346 1.577,14.346 1.577C14.346 1.577,14.100 0.478,12.736 0.500C11.728 0.517,11.320 1.577,11.320 1.577C11.320 1.577,11.127 7.500,11.127 7.500C11.127 7.500,11.227 7.938,10.590 8.038C9.953 8.139,9.839 7.598,9.839 7.598C9.839 7.598,8.444 3.192,8.444 3.192C8.444 3.192,8.075 2.317,6.835 2.654C5.730 2.954,5.654 4.147,5.654 4.147C5.654 4.147,7.371 10.231,7.371 10.231C7.371 10.231,7.804 11.719,7.500 12.000C7.128 12.345,6.298 11.808,6.298 11.808C6.298 11.808,4.652 10.115,4.652 10.115C4.652 10.115,2.542 8.715,1.469 9.577C0.396 10.438,1.969 11.769,1.969 11.769C1.969 11.769,2.274 12.337,3.986 14.299C5.664 16.223,7.753 18.047,7.322 17.572C8.246 18.590,8.444 20.500,8.444 20.500 Z"/>
</symbol>

<symbol id="zoom" viewBox="0 0 19 19">
  <path fill-rule="evenodd" d="M12.732,11.111 L18.389,16.768 L16.268,18.889 L10.611,13.232 L11.628,12.216 C10.392,13.313 8.783,14.000 7.000,14.000 C3.134,14.000 0.000,10.866 0.000,7.000 C0.000,3.134 3.134,0.000 7.000,0.000 C10.866,0.000 14.000,3.134 14.000,7.000 C14.000,8.783 13.313,10.392 12.216,11.628 L12.732,11.111 ZM7.000,2.000 C4.239,2.000 2.000,4.239 2.000,7.000 C2.000,9.761 4.239,12.000 7.000,12.000 C9.761,12.000 12.000,9.761 12.000,7.000 C12.000,4.239 9.761,2.000 7.000,2.000 Z"/>
</symbol>

<symbol id="onion" viewBox="0 0 16 12">
  <path fill-rule="evenodd" d="M2.462 6.000 C2.462 1.934,5.846 0.000,5.846 0.000C2.617 0.000,0.000 2.686,0.000 6.000C0.000 9.314,2.617 12.000,5.846 12.000C5.846 12.000,2.462 10.066,2.462 6.000 ZM10.154 0.000 C13.383 0.000,16.000 2.686,16.000 6.000C16.000 9.314,13.383 12.000,10.154 12.000C6.925 12.000,4.308 9.314,4.308 6.000C4.308 2.686,6.925 0.000,10.154 0.000 ZM10.154 2.526 C12.023 2.526,13.538 4.082,13.538 6.000C13.538 7.918,12.023 9.474,10.154 9.474C8.285 9.474,6.769 7.918,6.769 6.000C6.769 4.082,8.285 2.526,10.154 2.526 Z"/>
</symbol>

</svg>
