<svg xmlns="http://www.w3.org/2000/svg" xmlns:xlink="http://www.w3.org/1999/xlink" style="display: none;">

  <symbol id="first" viewBox="0 0 128 112">
  <path fill-rule="evenodd" d="M0.000 0.000 C0.000 0.000,24.000 0.000,24.000 0.000C24.000 0.000,24.000 112.000,24.000 112.000C24.000 112.000,0.000 112.000,0.000 112.000C0.000 112.000,0.000 0.000,0.000 0.000 Z"/>
  <path fill-rule="evenodd" d="M128.000 0.000 C128.000 0.000,128.000 112.000,128.000 112.000C128.000 112.000,16.000 56.000,16.000 56.000C16.000 56.000,128.000 0.000,128.000 0.000 Z"/>
  </symbol>

  <symbol id="play" viewBox="0 0 128 128">
  <path fill-rule="evenodd" d="M0.000 0.000 C0.000 0.000,128.000 64.000,128.000 64.000C128.000 64.000,0.000 128.000,0.000 128.000C0.000 128.000,0.000 0.000,0.000 0.000 Z"/>
  </symbol>

  <symbol id="last" viewBox="0 0 128 112">
  <path fill-rule="evenodd" d="M0.000 0.000 C0.000 0.000,111.200 56.000,111.200 56.000C111.200 56.000,0.000 112.000,0.000 112.000C0.000 112.000,0.000 0.000,0.000 0.000 Z"/>
  <path fill-rule="evenodd" d="M104.000 0.000 C104.000 0.000,128.000 0.000,128.000 0.000C128.000 0.000,128.000 112.000,128.000 112.000C128.000 112.000,104.000 112.000,104.000 112.000C104.000 112.000,104.000 0.000,104.000 0.000 Z"/>
  </symbol>

  <symbol id="loop" viewBox="0 0 114 128">
  <path fill-rule="evenodd" d="M97.000 47.000 C97.000 47.000,81.000 47.000,81.000 47.000C81.000 47.000,81.000 16.000,81.000 16.000C81.000 16.000,16.000 16.000,16.000 16.000C16.000 16.000,16.000 112.000,16.000 112.000C16.000 112.000,81.000 112.000,81.000 112.000C81.000 112.000,81.000 83.000,81.000 83.000C81.000 83.000,97.000 83.000,97.000 83.000C97.000 83.000,97.000 128.000,97.000 128.000C97.000 128.000,0.000 128.000,0.000 128.000C0.000 128.000,0.000 0.000,0.000 0.000C0.000 0.000,97.000 0.000,97.000 0.000C97.000 0.000,97.000 47.000,97.000 47.000 Z"/>
  <path fill-rule="evenodd" d="M64.000 47.000 C64.000 47.000,114.000 47.000,114.000 47.000C114.000 47.000,89.000 72.000,89.000 72.000C89.000 72.000,64.000 47.000,64.000 47.000 Z"/>
  </symbol>

  <symbol id="onion" viewBox="0 0 128 128">
  <path fill-rule="evenodd" opacity="0.5" d="M67.945 26.130 C62.803 21.866,56.202 19.300,49.000 19.300C32.597 19.300,19.300 32.597,19.300 49.000C19.300 56.202,21.866 62.803,26.130 67.945C25.387 71.514,24.993 75.211,24.993 79.000C24.993 83.530,25.558 87.926,26.609 92.131C11.040 84.031,0.400 67.763,0.400 49.000C0.400 22.159,22.159 0.400,49.000 0.400C67.763 0.400,84.031 11.040,92.131 26.609C87.926 25.558,83.530 24.993,79.000 24.993C75.211 24.993,71.514 25.387,67.945 26.130 Z"/>
  <path fill-rule="evenodd" d="M79.000 127.600 C52.159 127.600,30.400 105.841,30.400 79.000C30.400 52.159,52.159 30.400,79.000 30.400C105.841 30.400,127.600 52.159,127.600 79.000C127.600 105.841,105.841 127.600,79.000 127.600 ZM79.000 49.300 C62.597 49.300,49.300 62.597,49.300 79.000C49.300 95.403,62.597 108.700,79.000 108.700C95.403 108.700,108.700 95.403,108.700 79.000C108.700 62.597,95.403 49.300,79.000 49.300 Z"/>
  </symbol>

  <symbol id="pencil" viewBox="0 0 128 128">
  <path fill-rule="evenodd" d="M64.000 106.000 C64.000 106.000,128.000 42.000,128.000 42.000C128.000 42.000,86.000 0.000,86.000 0.000C86.000 0.000,22.000 64.000,22.000 64.000C22.000 64.000,0.000 122.000,0.000 122.000C0.000 122.000,6.000 128.000,6.000 128.000C6.000 128.000,64.000 106.000,64.000 106.000 ZM16.000 102.375 C16.000 102.375,27.813 70.000,27.813 70.000C27.813 70.000,58.000 100.188,58.000 100.188C58.000 100.188,25.625 112.000,25.625 112.000C25.625 112.000,16.000 102.375,16.000 102.375 Z"/>
  </symbol>

  <symbol id="pen" viewBox="0 0 26 20">
    <path fill-rule="evenodd" d="M22.250,9.250 L21.500,8.500 L20.250,12.250 L0.250,20.000 L16.000,4.250 L17.250,4.250 L16.500,3.500 L20.000,0.000 L25.750,5.750 L22.250,9.250 ZM18.250,5.250 L16.750,5.250 L5.000,17.000 L19.250,11.500 L20.500,7.500 L18.250,5.250 Z"/>
  </symbol>

  <symbol id="line" viewBox="0 0 128 128">
  <path fill-rule="evenodd" d="M0.000 120.000 C0.000 120.000,120.000 0.000,120.000 0.000C120.000 0.000,128.000 8.000,128.000 8.000C128.000 8.000,8.000 128.000,8.000 128.000C8.000 128.000,0.000 120.000,0.000 120.000 Z"/>
  </symbol>

  <symbol id="polygon" viewBox="0 0 128 118">
  <path fill-rule="evenodd" d="M0.000 31.000 C0.000 31.000,72.000 56.000,72.000 56.000C72.000 56.000,128.000 0.000,128.000 0.000C128.000 0.000,128.000 94.000,128.000 94.000C128.000 94.000,38.000 118.000,38.000 118.000C38.000 118.000,0.000 31.000,0.000 31.000 ZM23.000 52.000 C23.000 52.000,75.667 69.956,75.667 69.956C75.667 69.956,116.000 31.000,116.000 31.000C116.000 31.000,116.000 85.000,116.000 85.000C116.000 85.000,45.000 103.000,45.000 103.000C45.000 103.000,23.000 52.000,23.000 52.000 Z"/>
  </symbol>

  <symbol id="pointer" viewBox="0 0 96 128">
  <path fill-rule="evenodd" d="M0.000 128.000 C0.000 128.000,0.000 0.000,0.000 0.000C0.000 0.000,96.000 96.000,96.000 96.000C96.000 96.000,44.000 96.000,44.000 96.000C44.000 96.000,0.000 128.000,0.000 128.000 Z"/>
  </symbol>

  <symbol id="hand" viewBox="0 0 128 108">
  <path fill-rule="evenodd" d="M72.343 107.671 C93.677 107.671,102.839 91.033,107.540 82.679C117.228 65.460,125.860 40.875,125.860 40.875C125.860 40.875,127.500 35.333,123.000 33.000C118.500 30.667,114.171 35.006,114.171 35.006C114.171 35.006,107.979 48.050,107.979 48.050C107.979 48.050,104.905 51.183,101.905 49.558C98.905 47.933,98.767 45.539,99.068 44.179C100.791 36.412,105.000 18.000,105.000 18.000C105.000 18.000,105.519 10.198,99.637 8.804C92.799 7.183,90.870 14.673,90.870 14.673C90.870 14.673,85.000 38.000,85.000 38.000C85.000 38.000,81.843 41.451,79.103 41.085C76.364 40.718,76.181 38.150,76.181 38.150C76.181 38.150,76.181 7.869,76.181 7.869C76.181 7.869,76.000 0.000,68.000 0.000C60.000 0.000,59.699 7.869,59.699 7.869C59.699 7.869,59.647 37.150,59.647 37.150C59.647 37.150,59.195 40.534,55.725 41.085C52.255 41.635,51.634 38.684,51.634 38.684C51.634 38.684,44.036 15.673,44.036 15.673C44.036 15.673,40.102 9.738,34.269 11.738C28.436 13.738,28.840 20.875,28.840 20.875C28.840 20.875,38.191 53.033,38.191 53.033C38.191 53.033,40.547 61.142,38.893 62.675C36.867 64.554,32.347 61.627,32.347 61.627C32.347 61.627,23.381 52.404,23.381 52.404C23.381 52.404,11.891 44.774,6.046 49.469C0.202 54.164,8.770 61.417,8.770 61.417C8.770 61.417,10.788 64.211,19.752 75.206C39.921 99.943,51.010 107.671,72.343 107.671 Z"/>
  </symbol>

  <symbol id="zoom" viewBox="0 0 128 128">
  <path fill-rule="evenodd" d="M72.348 86.261 C72.348 86.261,86.261 72.348,86.261 72.348C86.261 72.348,128.000 114.087,128.000 114.087C128.000 114.087,114.087 128.000,114.087 128.000C114.087 128.000,72.348 86.261,72.348 86.261 Z"/>
  <path fill-rule="evenodd" d="M49.008 1.000 C75.521 1.000,97.015 22.494,97.015 49.008C97.015 75.521,75.521 97.015,49.008 97.015C22.494 97.015,1.000 75.521,1.000 49.008C1.000 22.494,22.494 1.000,49.008 1.000 ZM49.006 12.000 C69.444 12.000,86.012 28.568,86.012 49.006C86.012 69.444,69.444 86.012,49.006 86.012C28.568 86.012,12.000 69.444,12.000 49.006C12.000 28.568,28.568 12.000,49.006 12.000 Z"/>
  </symbol>

  <!-- UI controls -->

  <symbol id="tick" viewBox="0 0 10 8">
  <path fill-rule="evenodd" d="M-0.000,4.000 L4.000,8.000 L10.000,2.000 L8.000,-0.000 L4.000,4.000 L2.000,2.000 L-0.000,4.000 Z"/>
  </symbol>

  <symbol id="nullcolor" viewBox="0 0 8 8">
  <path fill-rule="evenodd" d="M4.000 0.000 C6.209 0.000,8.000 1.791,8.000 4.000C8.000 6.209,6.209 8.000,4.000 8.000C1.791 8.000,0.000 6.209,0.000 4.000C0.000 1.791,1.791 0.000,4.000 0.000 ZM4.000 1.000 C5.657 1.000,7.000 2.343,7.000 4.000C7.000 5.657,5.657 7.000,4.000 7.000C2.343 7.000,1.000 5.657,1.000 4.000C1.000 2.343,2.343 1.000,4.000 1.000 Z"/>
  </symbol>

  <symbol id="slash" viewBox="0 0 128 128">
  <path fill-rule="evenodd" d="M110.000 0.000 C110.000 0.000,128.000 0.000,128.000 0.000C128.000 0.000,18.000 128.000,18.000 128.000C18.000 128.000,0.000 128.000,0.000 128.000C0.000 128.000,110.000 0.000,110.000 0.000 Z"/>
  </symbol>

  <!-- <symbol id="plus" viewBox="0 0 128 128">
  <path fill-rule="evenodd" d="M128.000 72.000 C128.000 72.000,72.000 72.000,72.000 72.000C72.000 72.000,72.000 128.000,72.000 128.000C72.000 128.000,56.000 128.000,56.000 128.000C56.000 128.000,56.000 72.000,56.000 72.000C56.000 72.000,0.000 72.000,0.000 72.000C0.000 72.000,0.000 56.000,0.000 56.000C0.000 56.000,56.000 56.000,56.000 56.000C56.000 56.000,56.000 0.000,56.000 0.000C56.000 0.000,72.000 0.000,72.000 0.000C72.000 0.000,72.000 56.000,72.000 56.000C72.000 56.000,128.000 56.000,128.000 56.000C128.000 56.000,128.000 72.000,128.000 72.000 Z"/>
  </symbol> -->

  <symbol id="plus" viewBox="0 0 128 128">
  <path fill-rule="evenodd" d="M122.000 72.000 C122.000 72.000,72.000 72.000,72.000 72.000C72.000 72.000,72.000 122.000,72.000 122.000C72.000 125.314,69.314 128.000,66.000 128.000C66.000 128.000,62.000 128.000,62.000 128.000C58.686 128.000,56.000 125.314,56.000 122.000C56.000 122.000,56.000 72.000,56.000 72.000C56.000 72.000,6.000 72.000,6.000 72.000C2.686 72.000,0.000 69.314,0.000 66.000C0.000 66.000,0.000 62.000,0.000 62.000C0.000 58.686,2.686 56.000,6.000 56.000C6.000 56.000,56.000 56.000,56.000 56.000C56.000 56.000,56.000 6.000,56.000 6.000C56.000 2.686,58.686 0.000,62.000 0.000C62.000 0.000,66.000 0.000,66.000 0.000C69.314 0.000,72.000 2.686,72.000 6.000C72.000 6.000,72.000 56.000,72.000 56.000C72.000 56.000,122.000 56.000,122.000 56.000C125.314 56.000,128.000 58.686,128.000 62.000C128.000 62.000,128.000 66.000,128.000 66.000C128.000 69.314,125.314 72.000,122.000 72.000 Z"/>
  </symbol>

  <symbol id="checker" viewBox="0 0 128 128">
  <path fill-rule="evenodd" d="M0.000 0.000 C0.000 0.000,32.000 0.000,32.000 0.000C32.000 0.000,32.000 32.000,32.000 32.000C32.000 32.000,0.000 32.000,0.000 32.000C0.000 32.000,0.000 0.000,0.000 0.000 Z"/>
  <path fill-rule="evenodd" d="M32.000 32.000 C32.000 32.000,64.000 32.000,64.000 32.000C64.000 32.000,64.000 64.000,64.000 64.000C64.000 64.000,32.000 64.000,32.000 64.000C32.000 64.000,32.000 32.000,32.000 32.000 Z"/>
  <path fill-rule="evenodd" d="M64.000 64.000 C64.000 64.000,96.000 64.000,96.000 64.000C96.000 64.000,96.000 96.000,96.000 96.000C96.000 96.000,64.000 96.000,64.000 96.000C64.000 96.000,64.000 64.000,64.000 64.000 Z"/>
  <path fill-rule="evenodd" d="M96.000 96.000 C96.000 96.000,128.000 96.000,128.000 96.000C128.000 96.000,128.000 128.000,128.000 128.000C128.000 128.000,96.000 128.000,96.000 128.000C96.000 128.000,96.000 96.000,96.000 96.000 Z"/>
  <path fill-rule="evenodd" d="M96.000 32.000 C96.000 32.000,128.000 32.000,128.000 32.000C128.000 32.000,128.000 64.000,128.000 64.000C128.000 64.000,96.000 64.000,96.000 64.000C96.000 64.000,96.000 32.000,96.000 32.000 Z"/>
  <path fill-rule="evenodd" d="M64.000 0.000 C64.000 0.000,96.000 0.000,96.000 0.000C96.000 0.000,96.000 32.000,96.000 32.000C96.000 32.000,64.000 32.000,64.000 32.000C64.000 32.000,64.000 0.000,64.000 0.000 Z"/>
  <path fill-rule="evenodd" d="M32.000 96.000 C32.000 96.000,64.000 96.000,64.000 96.000C64.000 96.000,64.000 128.000,64.000 128.000C64.000 128.000,32.000 128.000,32.000 128.000C32.000 128.000,32.000 96.000,32.000 96.000 Z"/>
  <path fill-rule="evenodd" d="M0.000 64.000 C0.000 64.000,32.000 64.000,32.000 64.000C32.000 64.000,32.000 96.000,32.000 96.000C32.000 96.000,0.000 96.000,0.000 96.000C0.000 96.000,0.000 64.000,0.000 64.000 Z"/>
  </symbol>
</svg>
