<svg xmlns="http://www.w3.org/2000/svg" xmlns:xlink="http://www.w3.org/1999/xlink" display="none">
  <symbol id="first" viewBox="0 0 192 192">
  <path fill-rule="evenodd" d="M0.000 16.000 L32.000 16.000 L32.000 176.000 L0.000 176.000 Z"/>
  <path fill-rule="evenodd" d="M192.000 16.000 L192.000 176.000 L32.000 96.000 Z"/>
  </symbol>

  <symbol id="play" viewBox="0 0 192 192">
    <g id="play">
      <path fill-rule="evenodd" d="M181.527 108.152 L42.220 180.968 C42.220 180.968,34.772 184.581,29.006 182.172 C23.240 179.763,23.000 172.740,23.000 172.740 L23.000 17.254 C23.000 17.254,23.240 10.235,29.006 7.828 C34.772 5.420,42.220 9.031,42.220 9.031 L181.527 81.780 C181.527 81.780,191.000 85.897,191.000 94.925 C191.000 103.953,181.527 108.152,181.527 108.152 Z"/>
    </g>
  </symbol>

  <symbol id="last" viewBox="0 0 192 192">
  <path fill-rule="evenodd" d="M0.000 16.000 L160.000 96.000 L0.000 176.000 Z"/>
  <path fill-rule="evenodd" d="M160.000 16.000 L192.000 16.000 L192.000 176.000 L160.000 176.000 Z"/>
  </symbol>

  <symbol id="loop" viewBox="0 0 192 192">
    <g id="loop">
      <path fill-rule="evenodd" d="M155.000 107.000 L119.000 71.000 L143.000 71.000 L143.000 23.000 L23.000 23.000 L23.000 167.000 L143.000 167.000 L143.000 143.000 C143.000 138.666,147.041 135.000,151.000 135.000 L159.000 135.000 C163.084 135.000,167.000 139.041,167.000 143.000 L167.000 183.000 C167.000 186.959,163.209 191.000,159.000 191.000 L7.000 191.000 C2.666 191.000,-1.000 187.209,-1.000 183.000 L-1.000 7.000 C-1.000 3.291,3.125 -1.000,7.000 -1.000 L159.000 -1.000 C163.084 -1.000,167.000 2.916,167.000 7.000 L167.000 71.000 L191.000 71.000 Z"/>
    </g>
  </symbol>

  <symbol id="onion" viewBox="0 0 192 192">
  <path fill-rule="evenodd" opacity="0.5" d="M120.000 31.000 C113.218 31.000,106.623 31.784,100.276 33.221 C92.344 27.427,82.574 24.000,72.000 24.000 C45.490 24.000,24.000 45.490,24.000 72.000 C24.000 82.574,27.427 92.344,33.221 100.276 C31.784 106.623,31.000 113.218,31.000 120.000 C31.000 123.981,31.288 127.893,31.794 131.736 C12.614 118.801,-0.000 96.874,-0.000 72.000 C-0.000 32.235,32.235 -0.000,72.000 -0.000 C96.874 -0.000,118.801 12.615,131.736 31.794 C127.893 31.288,123.981 31.000,120.000 31.000 Z"/>
  <path fill-rule="evenodd" d="M120.000 48.000 C159.764 48.000,192.000 80.235,192.000 120.000 C192.000 159.764,159.764 192.000,120.000 192.000 C80.235 192.000,48.000 159.764,48.000 120.000 C48.000 80.235,80.235 48.000,120.000 48.000 ZM120.000 72.000 C146.510 72.000,168.000 93.490,168.000 120.000 C168.000 146.510,146.510 168.000,120.000 168.000 C93.490 168.000,72.000 146.510,72.000 120.000 C72.000 93.490,93.490 72.000,120.000 72.000 Z"/>
  </symbol>

  <!-- Tools -->

  <symbol id="pencil" viewBox="0 0 192 192">
    <g id="pencil">
      <path fill-rule="evenodd" d="M95.000 159.000 L187.000 67.000 C187.000 67.000,190.000 62.888,190.000 58.833 C190.000 54.890,187.000 51.000,187.000 51.000 L139.000 3.000 C139.000 3.000,134.775 -0.000,130.667 -0.000 C126.781 -0.000,123.000 3.000,123.000 3.000 L31.000 95.000 L2.000 173.000 C2.000 173.000,-0.250 179.750,5.000 185.000 C10.250 190.250,17.000 188.000,17.000 188.000 ZM21.000 153.562 L38.718 108.000 C38.718 108.000,40.693 106.000,42.714 106.000 C44.832 106.000,47.000 108.000,47.000 108.000 L82.000 143.000 C82.000 143.000,84.000 144.978,84.000 147.000 C84.000 149.116,82.000 151.281,82.000 151.281 L36.437 169.000 Z"/>
    </g>
  </symbol>

  <symbol id="line" viewBox="0 0 192 192">
    <g id="line">
      <path fill-rule="evenodd" d="M183.389 19.337 L19.368 183.358 C15.854 186.872,10.157 186.872,6.642 183.358 C3.128 179.843,3.128 174.146,6.642 170.632 L170.663 6.611 C174.177 3.097,179.875 3.097,183.389 6.611 C186.903 10.125,186.903 15.823,183.389 19.337 Z"/>
    </g>
  </symbol>

  <symbol id="polygon" viewBox="0 0 192 192">
    <g id="polygon">
      <path fill-rule="evenodd" d="M107.599 4.000 L185.000 133.796 L4.000 185.000 ZM37.000 159.000 L108.000 35.000 L161.000 124.000 Z"/>
    </g>
  </symbol>

  <symbol id="pointer" viewBox="0 0 192 192">
  <path fill-rule="evenodd" d="M36.000 192.000 L36.000 0.000 L180.000 144.000 L100.000 144.000 Z"/>
  </symbol>

  <symbol id="hand" viewBox="0 0 192 192">
  <path fill-rule="evenodd" d="M107.433 179.007 C140.967 179.007,155.369 152.891,162.759 139.777 C177.987 112.751,191.556 74.160,191.556 74.160 C191.556 74.160,194.134 65.461,187.060 61.799 C179.987 58.136,173.181 64.947,173.181 64.947 L163.448 85.422 C163.448 85.422,158.616 90.340,153.901 87.789 C149.185 85.239,149.526 80.134,150.000 78.000 C152.708 65.808,159.000 39.000,159.000 39.000 C159.000 39.000,160.000 26.174,150.336 23.819 C139.605 21.203,136.000 33.000,136.000 33.000 L127.000 68.000 C127.000 68.000,125.640 74.826,120.000 74.000 C115.701 73.371,115.000 67.000,115.000 67.000 L115.000 23.000 C115.000 23.000,114.181 10.000,101.606 10.000 C89.031 10.000,88.000 22.000,88.000 22.000 L88.000 67.000 C88.000 67.000,88.226 72.215,83.000 74.000 C77.545 75.864,74.881 70.720,74.881 70.720 L62.937 34.601 C62.937 34.601,56.754 25.286,47.585 28.425 C38.416 31.565,39.051 42.767,39.051 42.767 L53.750 93.243 C53.750 93.243,57.454 105.972,54.854 108.378 C51.668 111.327,44.563 106.733,44.563 106.733 L30.470 92.256 C30.470 92.256,12.409 80.280,3.222 87.650 C-5.965 95.020,7.503 106.404,7.503 106.404 C7.503 106.404,10.675 110.789,24.766 128.047 C56.468 166.876,73.900 179.007,107.433 179.007 Z"/>
  </symbol>

  <symbol id="zoom" viewBox="0 0 192 192">
  <path fill-rule="evenodd" d="M72.000 0.000 C111.764 0.000,144.000 32.236,144.000 72.000 C144.000 111.764,111.764 144.000,72.000 144.000 C32.236 144.000,0.000 111.764,0.000 72.000 C0.000 32.236,32.236 0.000,72.000 0.000 ZM72.000 14.000 C104.033 14.000,130.000 39.967,130.000 72.000 C130.000 104.033,104.033 130.000,72.000 130.000 C39.967 130.000,14.000 104.033,14.000 72.000 C14.000 39.967,39.967 14.000,72.000 14.000 Z"/>
  <path fill-rule="evenodd" d="M130.029 107.402 L186.598 163.971 C192.846 170.219,192.846 180.350,186.598 186.598 C180.350 192.846,170.219 192.846,163.971 186.598 L107.402 130.029 Z"/>
  </symbol>

  <!-- Components -->

  <symbol id="tick" viewBox="0 0 10 8">
  <path fill-rule="evenodd" d="M-0.000,4.000 L4.000,8.000 L10.000,2.000 L8.000,-0.000 L4.000,4.000 L2.000,2.000 L-0.000,4.000 Z"/>
  </symbol>

  <symbol id="plus" viewBox="0 0 128 128">
  <path fill-rule="evenodd" d="M114.000 72.000 C114.000 72.000,72.000 72.000,72.000 72.000C72.000 72.000,72.000 114.000,72.000 114.000C72.000 117.314,69.314 120.000,66.000 120.000C66.000 120.000,62.000 120.000,62.000 120.000C58.686 120.000,56.000 117.314,56.000 114.000C56.000 114.000,56.000 72.000,56.000 72.000C56.000 72.000,14.000 72.000,14.000 72.000C10.686 72.000,8.000 69.314,8.000 66.000C8.000 66.000,8.000 62.000,8.000 62.000C8.000 58.686,10.686 56.000,14.000 56.000C14.000 56.000,56.000 56.000,56.000 56.000C56.000 56.000,56.000 14.000,56.000 14.000C56.000 10.686,58.686 8.000,62.000 8.000C62.000 8.000,66.000 8.000,66.000 8.000C69.314 8.000,72.000 10.686,72.000 14.000C72.000 14.000,72.000 56.000,72.000 56.000C72.000 56.000,114.000 56.000,114.000 56.000C117.314 56.000,120.000 58.686,120.000 62.000C120.000 62.000,120.000 66.000,120.000 66.000C120.000 69.314,117.314 72.000,114.000 72.000 Z"/>
  </symbol>

  <symbol id="checker" viewBox="0 0 192 192">
  <path fill-rule="evenodd" d="M0.000 0.000 L48.000 0.000 L48.000 48.000 L0.000 48.000 Z"/>
  <path fill-rule="evenodd" d="M48.000 48.000 L96.000 48.000 L96.000 96.000 L48.000 96.000 Z"/>
  <path fill-rule="evenodd" d="M96.000 0.000 L144.000 0.000 L144.000 48.000 L96.000 48.000 Z"/>
  <path fill-rule="evenodd" d="M96.000 96.000 L144.000 96.000 L144.000 144.000 L96.000 144.000 Z"/>
  <path fill-rule="evenodd" d="M144.000 48.000 L192.000 48.000 L192.000 96.000 L144.000 96.000 Z"/>
  <path fill-rule="evenodd" d="M0.000 96.000 L48.000 96.000 L48.000 144.000 L0.000 144.000 Z"/>
  <path fill-rule="evenodd" d="M48.000 144.000 L96.000 144.000 L96.000 192.000 L48.000 192.000 Z"/>
  <path fill-rule="evenodd" d="M144.000 144.000 L192.000 144.000 L192.000 192.000 L144.000 192.000 Z"/>
  </symbol>

  <symbol id="nullColor" viewBox="0 0 192 192">
  <path fill-rule="evenodd" d="M96.000 48.000 C122.510 48.000,144.000 69.490,144.000 96.000 C144.000 122.510,122.510 144.000,96.000 144.000 C69.490 144.000,48.000 122.510,48.000 96.000 C48.000 69.490,69.490 48.000,96.000 48.000 ZM96.000 72.000 C109.255 72.000,120.000 82.745,120.000 96.000 C120.000 109.255,109.255 120.000,96.000 120.000 C82.745 120.000,72.000 109.255,72.000 96.000 C72.000 82.745,82.745 72.000,96.000 72.000 Z"/>
  </symbol>

  <symbol id="slash" viewBox="0 0 192 192">
  <path fill-rule="evenodd" d="M176.000 -0.000 L192.000 16.000 L16.000 192.000 L-0.000 176.000 Z"/>
  </symbol>

  <symbol id="stroke" viewBox="0 0 192 192">
    <path fill-rule="evenodd" d="M95.000 20.000 C136.421 20.000,170.000 53.579,170.000 95.000 C170.000 136.421,136.421 170.000,95.000 170.000 C53.578 170.000,20.000 136.421,20.000 95.000 C20.000 53.579,53.578 20.000,95.000 20.000 ZM95.000 50.000 C119.853 50.000,140.000 70.147,140.000 95.000 C140.000 119.853,119.853 140.000,95.000 140.000 C70.147 140.000,50.000 119.853,50.000 95.000 C50.000 70.147,70.147 50.000,95.000 50.000 Z"/>
  </symbol>

  <symbol id="nostroke" viewBox="0 0 192 192">
    <g id="nostroke">
      <path fill-rule="evenodd" d="M155.421 139.421 L133.795 117.795 C137.732 111.108,140.000 103.321,140.000 95.000 C140.000 70.147,119.853 50.000,95.000 50.000 C86.679 50.000,78.891 52.267,72.205 56.205 L50.578 34.578 C63.014 25.420,78.371 20.000,95.000 20.000 C136.421 20.000,170.000 53.578,170.000 95.000 C170.000 111.628,164.579 126.986,155.421 139.421 Z"/>
      <path fill-rule="evenodd" d="M56.205 72.205 C52.267 78.891,50.000 86.679,50.000 95.000 C50.000 119.853,70.147 140.000,95.000 140.000 C103.321 140.000,111.108 137.732,117.795 133.795 L139.421 155.421 C126.986 164.579,111.628 170.000,95.000 170.000 C53.578 170.000,20.000 136.421,20.000 95.000 C20.000 78.371,25.420 63.014,34.578 50.578 Z"/>
    </g>
  </symbol>

  <symbol id="fill" viewBox="0 0 192 192">
  <path fill-rule="evenodd" d="M95.000 20.000 C136.421 20.000,170.000 53.579,170.000 95.000 C170.000 136.421,136.421 170.000,95.000 170.000 C53.578 170.000,20.000 136.421,20.000 95.000 C20.000 53.579,53.578 20.000,95.000 20.000 Z"/>
  </symbol>

  <symbol id="nofill" viewBox="0 0 192 192">
    <g id="nofill">
      <path fill-rule="evenodd" d="M139.421 155.421 C126.986 164.579,111.628 170.000,95.000 170.000 C53.578 170.000,20.000 136.421,20.000 95.000 C20.000 78.371,25.420 63.014,34.578 50.578 Z"/>
      <path fill-rule="evenodd" d="M155.421 139.421 L50.578 34.578 C63.014 25.420,78.371 20.000,95.000 20.000 C136.421 20.000,170.000 53.578,170.000 95.000 C170.000 111.628,164.579 126.986,155.421 139.421 Z"/>
    </g>
  </symbol>

  <symbol id="swatch-border" viewBox="0 0 192 192">
    <g id="swatch-border">
      <path fill-rule="evenodd" d="M95.000 2.000 C146.362 2.000,188.000 43.637,188.000 95.000 C188.000 146.362,146.362 188.000,95.000 188.000 C43.637 188.000,2.000 146.362,2.000 95.000 C2.000 43.637,43.637 2.000,95.000 2.000 Z"/>
    </g>
  </symbol>

  <symbol id="collapse" viewBox="0 0 192 192">
    <g id="collapse">
      <path fill-rule="evenodd" d="M103.000 35.285 C103.000 35.285,100.167 31.000,95.000 31.000 C89.833 31.000,87.000 35.285,87.000 35.285 L17.000 132.286 C13.250 136.035,16.029 143.000,21.000 143.000 L169.000 143.000 C173.970 143.000,176.250 135.536,173.000 132.286 Z"/>
    </g>
  </symbol>

  <symbol id="locked" viewBox="0 0 192 192">
    <g id="locked">
      <path fill-rule="evenodd" d="M38.000 95.000 L152.000 95.000 C155.989 95.000,159.000 98.024,159.000 102.000 L159.000 183.800 C159.000 187.776,155.766 191.000,151.778 191.000 L38.222 191.000 C34.234 191.000,31.000 187.776,31.000 183.800 L31.000 102.000 C31.000 98.024,34.011 95.000,38.000 95.000 Z"/>
      <path fill-rule="evenodd" d="M133.519 96.800 L133.519 53.400 C133.519 32.192,116.273 15.000,95.000 15.000 C73.727 15.000,56.481 32.192,56.481 53.400 L56.481 96.800 L75.741 96.800 L75.741 53.400 C75.741 42.796,84.363 34.200,95.000 34.200 C105.637 34.200,114.259 42.796,114.259 53.400 L114.259 96.800 Z"/>
    </g>
  </symbol>

  <symbol id="unlocked" viewBox="0 0 192 192">
    <g id="unlocked">
      <path fill-rule="evenodd" d="M38.000 95.000 L152.000 95.000 C155.989 95.000,159.000 98.024,159.000 102.000 L159.000 183.800 C159.000 187.776,155.766 191.000,151.778 191.000 L38.222 191.000 C34.234 191.000,31.000 187.776,31.000 183.800 L31.000 102.000 C31.000 98.024,34.011 95.000,38.000 95.000 Z"/>
      <path fill-rule="evenodd" d="M133.519 96.800 L133.519 37.400 C133.519 16.192,116.273 -1.000,95.000 -1.000 C73.727 -1.000,56.481 16.192,56.481 37.400 L56.481 59.800 L75.741 59.800 L75.741 37.400 C75.741 26.796,84.363 18.200,95.000 18.200 C105.637 18.200,114.259 26.796,114.259 37.400 L114.259 96.800 Z"/>
    </g>
  </symbol>

  <!-- Menu -->

  <symbol id="new-small" viewBox="0 0 128 128">
    <g id="new-small">
      <path fill-rule="evenodd" d="M-1.000 55.000 L-1.000 111.000 L127.000 111.000 L127.000 15.000 L39.000 15.000 ZM39.000 27.000 L39.000 55.000 L11.000 55.000 ZM47.000 23.000 L119.000 23.000 L119.000 103.000 L7.000 103.000 L7.000 63.000 L47.000 63.000 Z"/>
    </g>
  </symbol>

  <symbol id="export-small" viewBox="0 0 128 128">
    <g id="export-small">
      <path fill-rule="evenodd" d="M71.000 55.000 L119.000 55.000 L119.000 119.000 L7.000 119.000 L7.000 55.000 L55.000 55.000 L55.000 47.000 L-1.000 47.000 L-1.000 127.000 L127.000 127.000 L127.000 47.000 L71.000 47.000 Z"/>
      <path fill-rule="evenodd" d="M57.000 -1.000 L32.000 24.000 L37.000 29.000 L55.000 11.000 L55.000 79.000 L63.000 79.000 L63.000 11.000 L81.000 29.000 L86.000 24.000 C86.000 24.000,67.120 5.120,61.000 -1.000 Z"/>
    </g>
  </symbol>

  <!-- Settings -->

  <symbol id="export" viewBox="0 0 256 256">
    <g id="export">
      <path fill-rule="evenodd" d="M239.000 255.000 L15.000 255.000 C6.748 255.000,-1.000 246.918,-1.000 239.000 C-1.000 239.000,-1.000 127.000,-1.000 111.000 C-1.000 103.000,6.917 95.000,15.000 95.000 C31.000 95.000,111.000 95.000,111.000 95.000 L111.000 31.000 L83.000 59.000 L68.000 44.000 C68.000 44.000,85.750 26.250,101.000 11.000 C116.250 -4.250,129.500 -4.500,145.000 11.000 C160.500 26.500,178.000 44.000,178.000 44.000 L163.000 59.000 L135.000 31.000 L135.000 95.000 L135.000 95.000 L135.000 119.000 L135.000 119.000 L135.000 175.000 L111.000 175.000 L111.000 119.000 L27.000 119.000 C24.791 119.000,23.000 120.791,23.000 123.000 L23.000 227.000 C23.000 229.209,24.791 231.000,27.000 231.000 L227.000 231.000 C229.209 231.000,231.000 229.209,231.000 227.000 L231.000 123.000 C231.000 120.791,229.209 119.000,227.000 119.000 L159.000 119.000 L159.000 95.000 L239.000 95.000 C246.918 95.000,255.000 103.082,255.000 111.000 L255.000 239.000 C255.000 246.918,246.585 255.000,239.000 255.000 Z"/>
    </g>
  </symbol>

  <symbol id="settings" viewBox="0 0 256 256">
    <g id="settings">
      <path fill-rule="evenodd" d="M47.000 47.000 L207.000 47.000 C215.837 47.000,223.000 54.163,223.000 63.000 C223.000 71.837,215.837 79.000,207.000 79.000 L47.000 79.000 C38.163 79.000,31.000 71.837,31.000 63.000 C31.000 54.163,38.163 47.000,47.000 47.000 Z"/>
      <path fill-rule="evenodd" d="M47.000 111.000 L207.000 111.000 C215.837 111.000,223.000 118.163,223.000 127.000 C223.000 135.837,215.837 143.000,207.000 143.000 L47.000 143.000 C38.163 143.000,31.000 135.837,31.000 127.000 C31.000 118.163,38.163 111.000,47.000 111.000 Z"/>
      <path fill-rule="evenodd" d="M47.000 175.000 L207.000 175.000 C215.837 175.000,223.000 182.163,223.000 191.000 C223.000 199.837,215.837 207.000,207.000 207.000 L47.000 207.000 C38.163 207.000,31.000 199.837,31.000 191.000 C31.000 182.163,38.163 175.000,47.000 175.000 Z"/>
    </g>
  </symbol>

</svg>
