<svg xmlns="http://www.w3.org/2000/svg" xmlns:xlink="http://www.w3.org/1999/xlink" style="display: none;">

<symbol id="new" viewBox="0 0 10 12">
  <path fill-rule="evenodd" d="M-0.000,12.000 L-0.000,4.000 L4.000,-0.000 L10.000,-0.000 L10.000,12.000 L-0.000,12.000 ZM4.000,1.000 L1.000,4.000 L4.000,4.000 L4.000,1.000 ZM9.000,1.000 L5.000,1.000 L5.000,5.000 L1.000,5.000 L1.000,11.000 L9.000,11.000 L9.000,1.000 Z"/>
</symbol>

<symbol id="copy" viewBox="0 0 10 12">
  <path fill-rule="evenodd" d="M3.000,12.000 L3.000,8.000 L-0.000,8.000 L-0.000,-0.000 L7.000,-0.000 L7.000,4.000 L10.000,4.000 L10.000,12.000 L3.000,12.000 ZM6.000,1.000 L1.000,1.000 L1.000,7.000 L3.000,7.000 L3.000,4.000 L6.000,4.000 L6.000,1.000 ZM9.000,5.000 L4.000,5.000 L4.000,11.000 L9.000,11.000 L9.000,5.000 Z"/>
</symbol>

<symbol id="delete" viewBox="0 0 11 12">
  <path fill-rule="evenodd" d="M10.000,3.000 L10.000,12.000 L1.000,12.000 L1.000,3.000 L-0.000,3.000 L-0.000,2.000 L1.000,2.000 L2.000,2.000 L2.000,-0.000 L3.000,-0.000 L9.000,-0.000 L9.000,2.000 L10.000,2.000 L11.000,2.000 L11.000,3.000 L10.000,3.000 ZM8.000,1.000 L3.000,1.000 L3.000,2.000 L8.000,2.000 L8.000,1.000 ZM9.000,3.000 L2.000,3.000 L2.000,11.000 L9.000,11.000 L9.000,3.000 ZM4.000,10.000 L3.000,10.000 L3.000,4.000 L4.000,4.000 L4.000,10.000 ZM6.000,10.000 L5.000,10.000 L5.000,4.000 L6.000,4.000 L6.000,10.000 ZM8.000,10.000 L7.000,10.000 L7.000,4.000 L8.000,4.000 L8.000,10.000 Z"/>
</symbol>

<symbol id="tick" viewBox="0 0 10 8">
  <path fill-rule="evenodd" d="M-0.000,4.000 L4.000,8.000 L10.000,2.000 L8.000,-0.000 L4.000,4.000 L2.000,2.000 L-0.000,4.000 Z"/>
</symbol>

<symbol id="pointer" viewBox="0 0 11 17">
 <path fill-rule="evenodd" d="M-0.000,16.000 L-0.000,-0.000 L11.000,11.000 L6.000,11.000 L8.000,16.000 L6.000,17.000 L4.000,12.000 L-0.000,16.000 Z"/>
</symbol>

<symbol id="pencil" viewBox="0 0 19 19">
  <path fill-rule="evenodd" d="M9.509,15.809 L0.062,18.963 L3.211,9.501 L12.658,0.040 L18.957,6.347 L9.509,15.809 ZM3.998,10.290 L2.424,15.020 L3.211,15.809 L3.998,16.597 L8.722,15.020 L3.998,10.290 Z"/>
</symbol>

<symbol id="knife" viewBox="0 0 26 20">
  <path fill-rule="evenodd" d="M22.250,9.250 L21.500,8.500 L20.250,12.250 L0.250,20.000 L16.000,4.250 L17.250,4.250 L16.500,3.500 L20.000,0.000 L25.750,5.750 L22.250,9.250 ZM18.250,5.250 L16.750,5.250 L5.000,17.000 L19.250,11.500 L20.500,7.500 L18.250,5.250 Z"/>
</symbol>

<symbol id="line" viewBox="0 0 21 20">
  <path fill-rule="evenodd" d="M0.954,18.132 L18.632,0.454 L20.046,1.868 L2.368,19.546 L0.954,18.132 Z"/>
</symbol>

<symbol id="zoom" viewBox="0 0 19 19">
  <path fill-rule="evenodd" d="M12.732,11.111 L18.389,16.768 L16.268,18.889 L10.611,13.232 L11.628,12.216 C10.392,13.313 8.783,14.000 7.000,14.000 C3.134,14.000 0.000,10.866 0.000,7.000 C0.000,3.134 3.134,0.000 7.000,0.000 C10.866,0.000 14.000,3.134 14.000,7.000 C14.000,8.783 13.313,10.392 12.216,11.628 L12.732,11.111 ZM7.000,2.000 C4.239,2.000 2.000,4.239 2.000,7.000 C2.000,9.761 4.239,12.000 7.000,12.000 C9.761,12.000 12.000,9.761 12.000,7.000 C12.000,4.239 9.761,2.000 7.000,2.000 Z"/>
</symbol>


<symbol id="onion" viewBox="0 0 12 8">
  <path fill-rule="evenodd" opacity="0.6" d="M2.000,4.000 C2.000,5.862 3.278,7.412 5.000,7.859 C4.679,7.942 4.347,8.000 4.000,8.000 C1.791,8.000 -0.000,6.209 -0.000,4.000 C-0.000,1.791 1.791,-0.000 4.000,-0.000 C4.347,-0.000 4.679,0.058 5.000,0.141 C3.278,0.588 2.000,2.138 2.000,4.000 Z"/>
  <path fill-rule="evenodd" d="M8.000,8.000 C5.791,8.000 4.000,6.209 4.000,4.000 C4.000,1.791 5.791,-0.000 8.000,-0.000 C10.209,-0.000 12.000,1.791 12.000,4.000 C12.000,6.209 10.209,8.000 8.000,8.000 ZM8.000,2.000 C6.895,2.000 6.000,2.895 6.000,4.000 C6.000,5.105 6.895,6.000 8.000,6.000 C9.105,6.000 10.000,5.105 10.000,4.000 C10.000,2.895 9.105,2.000 8.000,2.000 Z"/>
</symbol>


</svg>
