<svg
 xmlns="http://www.w3.org/2000/svg"
 xmlns:xlink="http://www.w3.org/1999/xlink"
 width="11px" height="12px">
<path fill-rule="evenodd"  fill="rgb(0, 0, 0)"
 d="M10.000,3.000 L10.000,12.000 L1.000,12.000 L1.000,3.000 L-0.000,3.000 L-0.000,2.000 L1.000,2.000 L2.000,2.000 L2.000,-0.000 L3.000,-0.000 L9.000,-0.000 L9.000,2.000 L10.000,2.000 L11.000,2.000 L11.000,3.000 L10.000,3.000 ZM8.000,1.000 L3.000,1.000 L3.000,2.000 L8.000,2.000 L8.000,1.000 ZM9.000,3.000 L2.000,3.000 L2.000,11.000 L9.000,11.000 L9.000,3.000 ZM4.000,10.000 L3.000,10.000 L3.000,4.000 L4.000,4.000 L4.000,10.000 ZM6.000,10.000 L5.000,10.000 L5.000,4.000 L6.000,4.000 L6.000,10.000 ZM8.000,10.000 L7.000,10.000 L7.000,4.000 L8.000,4.000 L8.000,10.000 Z"/>
</svg>