<svg
 xmlns="http://www.w3.org/2000/svg"
 xmlns:xlink="http://www.w3.org/1999/xlink"
 width="21px" height="15px">
<path fill-rule="evenodd"  fill="rgb(0, 0, 0)"
 d="M16.000,15.000 L16.000,14.000 L20.000,14.000 L20.000,12.000 L21.000,12.000 L21.000,15.000 L16.000,15.000 ZM20.000,8.000 L21.000,8.000 L21.000,11.000 L20.000,11.000 L20.000,8.000 ZM20.000,4.000 L21.000,4.000 L21.000,7.000 L20.000,7.000 L20.000,4.000 ZM20.000,1.000 L16.000,1.000 L16.000,-0.000 L21.000,-0.000 L21.000,3.000 L20.000,3.000 L20.000,1.000 ZM11.000,14.000 L15.000,14.000 L15.000,15.000 L11.000,15.000 L11.000,14.000 ZM11.000,-0.000 L15.000,-0.000 L15.000,1.000 L11.000,1.000 L11.000,-0.000 ZM6.000,1.000 L6.000,-0.000 L10.000,-0.000 L10.000,1.000 L6.000,1.000 ZM0.000,12.000 L1.000,12.000 L1.000,14.000 L5.000,14.000 L5.000,15.000 L0.000,15.000 L0.000,12.000 ZM1.000,3.000 L0.000,3.000 L0.000,-0.000 L5.000,-0.000 L5.000,1.000 L1.000,1.000 L1.000,3.000 ZM1.000,7.000 L0.000,7.000 L0.000,4.000 L1.000,4.000 L1.000,7.000 ZM1.000,11.000 L0.000,11.000 L0.000,8.000 L1.000,8.000 L1.000,11.000 ZM10.000,15.000 L6.000,15.000 L6.000,14.000 L10.000,14.000 L10.000,15.000 Z"/>
</svg>