<svg xmlns="http://www.w3.org/2000/svg" xmlns:xlink="http://www.w3.org/1999/xlink" style="display: none;">

  <symbol id="new" viewBox="0 0 16 14">
    <path fill-rule="evenodd" d="M6.000 0.000 C6.000 0.000,15.000 0.000,15.000 0.000C15.552 0.000,16.000 0.448,16.000 1.000C16.000 1.000,16.000 13.000,16.000 13.000C16.000 13.552,15.552 14.000,15.000 14.000C15.000 14.000,1.000 14.000,1.000 14.000C0.448 14.000,0.000 13.552,0.000 13.000C0.000 13.000,0.000 6.000,0.000 6.000C0.000 6.000,6.000 6.000,6.000 6.000C6.000 6.000,6.000 0.000,6.000 0.000 ZM0.000 5.000 C0.000 5.000,5.000 0.000,5.000 0.000C5.000 0.000,5.000 5.000,5.000 5.000C5.000 5.000,0.000 5.000,0.000 5.000 Z"/>
  </symbol>

  <symbol id="copy" viewBox="0 0 16 14">
    <path fill-rule="evenodd" d="M15.000 6.000 C15.552 6.000,16.000 6.448,16.000 7.000C16.000 7.000,16.000 13.000,16.000 13.000C16.000 13.552,15.552 14.000,15.000 14.000C15.000 14.000,6.000 14.000,6.000 14.000C5.448 14.000,5.000 13.552,5.000 13.000C5.000 13.000,5.000 7.000,5.000 7.000C5.000 6.448,5.448 6.000,6.000 6.000C6.000 6.000,15.000 6.000,15.000 6.000 ZM11.000 5.000 C11.000 5.000,11.000 1.000,11.000 1.000C11.000 0.448,10.552 0.000,10.000 0.000C10.000 0.000,1.000 0.000,1.000 0.000C0.448 0.000,0.000 0.448,0.000 1.000C0.000 1.000,0.000 7.000,0.000 7.000C0.000 7.552,0.448 8.000,1.000 8.000C1.000 8.000,4.000 8.000,4.000 8.000C4.000 8.000,4.000 6.500,4.000 6.500C4.000 5.395,4.895 5.000,6.000 5.000C6.000 5.000,11.000 5.000,11.000 5.000 Z"/>
  </symbol>

  <symbol id="trash" viewBox="0 0 11 14">
    <path fill-rule="evenodd" d="M10.000 4.000 C10.000 4.000,10.000 12.500,10.000 12.500C10.000 13.052,9.052 14.000,8.500 14.000C8.500 14.000,2.500 14.000,2.500 14.000C1.948 14.000,1.000 13.052,1.000 12.500C1.000 12.500,1.000 4.000,1.000 4.000C1.000 4.000,10.000 4.000,10.000 4.000 ZM3.000 4.000 C3.000 4.000,3.000 12.000,3.000 12.000C3.000 12.000,2.000 12.000,2.000 12.000C2.000 12.000,2.000 4.000,2.000 4.000C2.000 4.000,3.000 4.000,3.000 4.000 ZM7.000 4.000 C7.000 4.000,7.000 12.000,7.000 12.000C7.000 12.000,6.000 12.000,6.000 12.000C6.000 12.000,6.000 4.000,6.000 4.000C6.000 4.000,7.000 4.000,7.000 4.000 ZM5.000 4.000 C5.000 4.000,5.000 12.000,5.000 12.000C5.000 12.000,4.000 12.000,4.000 12.000C4.000 12.000,4.000 4.000,4.000 4.000C4.000 4.000,5.000 4.000,5.000 4.000 ZM9.000 4.000 C9.000 4.000,9.000 12.000,9.000 12.000C9.000 12.000,8.000 12.000,8.000 12.000C8.000 12.000,8.000 4.000,8.000 4.000C8.000 4.000,9.000 4.000,9.000 4.000 ZM6.000 0.000 C6.000 0.000,5.000 0.000,5.000 0.000C3.324 0.000,3.000 2.000,3.000 2.000C3.000 2.000,4.500 2.000,4.500 2.000C4.500 2.000,4.500 1.000,4.500 1.000C4.500 1.000,6.500 1.000,6.500 1.000C6.500 1.000,6.500 2.000,6.500 2.000C6.500 2.000,8.000 2.000,8.000 2.000C8.000 2.000,7.676 0.000,6.000 0.000 ZM0.500 2.000 C0.500 2.000,10.500 2.000,10.500 2.000C10.776 2.000,11.000 2.224,11.000 2.500C11.000 2.500,11.000 3.500,11.000 3.500C11.000 3.776,10.776 4.000,10.500 4.000C10.500 4.000,0.500 4.000,0.500 4.000C0.224 4.000,0.000 3.776,0.000 3.500C0.000 3.500,0.000 2.500,0.000 2.500C0.000 2.224,0.224 2.000,0.500 2.000 Z"/>
  </symbol>

  <symbol id="first" viewBox="0 0 128 128">
  <path fill-rule="evenodd" d="M0.000 0.000 C0.000 0.000,16.000 0.000,16.000 0.000C16.000 0.000,16.000 128.000,16.000 128.000C16.000 128.000,0.000 128.000,0.000 128.000C0.000 128.000,0.000 0.000,0.000 0.000 Z"/>
  <path fill-rule="evenodd" d="M128.000 0.000 C128.000 0.000,128.000 128.000,128.000 128.000C128.000 128.000,16.000 64.000,16.000 64.000C16.000 64.000,128.000 0.000,128.000 0.000 Z"/>
  </symbol>

  <symbol id="play" viewBox="0 0 128 128">
  <path fill-rule="evenodd" d="M0.000 0.000 C0.000 0.000,128.000 64.000,128.000 64.000C128.000 64.000,0.000 128.000,0.000 128.000C0.000 128.000,0.000 0.000,0.000 0.000 Z"/>
  </symbol>

  <symbol id="last" viewBox="0 0 128 128">
  <path fill-rule="evenodd" d="M0.000 0.000 C0.000 0.000,112.000 64.000,112.000 64.000C112.000 64.000,0.000 128.000,0.000 128.000C0.000 128.000,0.000 0.000,0.000 0.000 Z"/>
  <path fill-rule="evenodd" d="M112.000 0.000 C112.000 0.000,128.000 0.000,128.000 0.000C128.000 0.000,128.000 128.000,128.000 128.000C128.000 128.000,112.000 128.000,112.000 128.000C112.000 128.000,112.000 0.000,112.000 0.000 Z"/>
  </symbol>

  <symbol id="loop" viewBox="0 0 114 128">
  <path fill-rule="evenodd" d="M97.000 47.000 C97.000 47.000,81.000 47.000,81.000 47.000C81.000 47.000,81.000 16.000,81.000 16.000C81.000 16.000,16.000 16.000,16.000 16.000C16.000 16.000,16.000 112.000,16.000 112.000C16.000 112.000,81.000 112.000,81.000 112.000C81.000 112.000,81.000 83.000,81.000 83.000C81.000 83.000,97.000 83.000,97.000 83.000C97.000 83.000,97.000 128.000,97.000 128.000C97.000 128.000,0.000 128.000,0.000 128.000C0.000 128.000,0.000 0.000,0.000 0.000C0.000 0.000,97.000 0.000,97.000 0.000C97.000 0.000,97.000 47.000,97.000 47.000 Z"/>
  <path fill-rule="evenodd" d="M64.000 47.000 C64.000 47.000,114.000 47.000,114.000 47.000C114.000 47.000,89.000 72.000,89.000 72.000C89.000 72.000,64.000 47.000,64.000 47.000 Z"/>
  </symbol>

<symbol id="plus" viewBox="0 0 14 14">
<path fill-rule="evenodd" d="M1.000 6.000 C1.000 6.000,13.000 6.000,13.000 6.000C13.552 6.000,14.000 6.448,14.000 7.000C14.000 7.552,13.552 8.000,13.000 8.000C13.000 8.000,1.000 8.000,1.000 8.000C0.448 8.000,0.000 7.552,0.000 7.000C0.000 6.448,0.448 6.000,1.000 6.000 Z"/>
<path fill-rule="evenodd" d="M8.000 1.000 C8.000 1.000,8.000 13.000,8.000 13.000C8.000 13.552,7.552 14.000,7.000 14.000C6.448 14.000,6.000 13.552,6.000 13.000C6.000 13.000,6.000 1.000,6.000 1.000C6.000 0.448,6.448 0.000,7.000 0.000C7.552 0.000,8.000 0.448,8.000 1.000 Z"/>
</symbol>

<!-- TOOLS -->

<symbol id="pointer" viewBox="0 0 15.5 21.5">
<path fill-rule="evenodd" d="M0.000 21.500 C0.000 21.500,0.000 0.000,0.000 0.000C0.000 0.000,15.500 15.500,15.500 15.500C15.500 15.500,6.000 15.500,6.000 15.500C6.000 15.500,0.000 21.500,0.000 21.500 Z"/>
</symbol>

<!-- <symbol id="pencil" viewBox="0 0 19 19">
  <path fill-rule="evenodd" d="M9.509,15.809 L0.062,18.963 L3.211,9.501 L12.658,0.040 L18.957,6.347 L9.509,15.809 ZM3.998,10.290 L2.424,15.020 L3.211,15.809 L3.998,16.597 L8.722,15.020 L3.998,10.290 Z"/>
</symbol> -->

<symbol id="pencil" viewBox="0 0 128 128">
<path fill-rule="evenodd" d="M22.000 64.000 C22.000 64.000,0.000 128.000,0.000 128.000C0.000 128.000,64.000 105.600,64.000 105.600C64.000 105.600,128.000 42.000,128.000 42.000C128.000 42.000,86.000 0.000,86.000 0.000C86.000 0.000,22.000 64.000,22.000 64.000 ZM28.800 70.400 C28.800 70.400,19.200 99.200,19.200 99.200C19.200 99.200,28.800 108.800,28.800 108.800C28.800 108.800,57.600 99.200,57.600 99.200C57.600 99.200,28.800 70.400,28.800 70.400 Z"/>
</symbol>

<symbol id="pen" viewBox="0 0 26 20">
  <path fill-rule="evenodd" d="M22.250,9.250 L21.500,8.500 L20.250,12.250 L0.250,20.000 L16.000,4.250 L17.250,4.250 L16.500,3.500 L20.000,0.000 L25.750,5.750 L22.250,9.250 ZM18.250,5.250 L16.750,5.250 L5.000,17.000 L19.250,11.500 L20.500,7.500 L18.250,5.250 Z"/>
</symbol>

<symbol id="line" viewBox="0 0 23 23">
<path fill-rule="evenodd" d="M0.247 21.339 C0.247 21.339,21.339 0.247,21.339 0.247C21.339 0.247,22.753 1.661,22.753 1.661C22.753 1.661,1.661 22.753,1.661 22.753C1.661 22.753,0.247 21.339,0.247 21.339 Z"/>
</symbol>

<symbol id="polygon" viewBox="0 0 24.5 23">
<path fill-rule="evenodd" d="M0.500 6.000 C0.500 6.000,14.000 10.500,14.000 10.500C14.000 10.500,24.500 0.000,24.500 0.000C24.500 0.000,24.500 18.000,24.500 18.000C24.500 18.000,9.000 23.000,9.000 23.000C9.000 23.000,0.500 6.000,0.500 6.000 ZM4.500 9.500 C4.500 9.500,14.500 13.000,14.500 13.000C14.500 13.000,22.500 5.000,22.500 5.000C22.500 5.000,22.500 16.500,22.500 16.500C22.500 16.500,10.000 20.500,10.000 20.500C10.000 20.500,4.500 9.500,4.500 9.500 Z"/>
</symbol>

<symbol id="hand" viewBox="0 0 128 110">
<path fill-rule="evenodd" d="M44.036 110.000 C44.036 110.000,99.559 110.000,99.559 110.000C99.559 110.000,99.723 99.867,101.532 93.650C102.180 91.423,104.038 89.108,107.540 83.679C114.937 72.211,117.865 65.659,120.189 59.846C125.523 46.510,125.860 41.875,125.860 41.875C125.860 41.875,127.443 34.172,120.015 33.071C114.879 32.310,114.171 36.006,114.171 36.006C114.171 36.006,106.979 50.050,106.979 50.050C106.979 50.050,105.221 52.356,102.482 50.888C99.742 49.421,99.559 47.954,99.559 47.954C99.559 47.954,102.482 15.673,102.482 15.673C102.482 15.673,101.853 10.865,96.637 9.804C89.751 8.403,87.870 15.673,87.870 15.673C87.870 15.673,84.948 36.215,84.948 36.215C84.948 36.215,81.843 42.451,79.103 42.085C76.364 41.718,76.181 39.150,76.181 39.150C76.181 39.150,76.181 6.869,76.181 6.869C76.181 6.869,74.842 0.878,67.414 1.000C61.923 1.090,59.699 6.869,59.699 6.869C59.699 6.869,58.647 39.150,58.647 39.150C58.647 39.150,59.195 41.534,55.725 42.085C52.255 42.635,51.634 39.684,51.634 39.684C51.634 39.684,44.036 15.673,44.036 15.673C44.036 15.673,42.027 10.904,35.269 12.738C29.251 14.372,28.840 20.875,28.840 20.875C28.840 20.875,38.191 54.033,38.191 54.033C38.191 54.033,40.547 62.142,38.894 63.675C36.867 65.554,32.347 62.627,32.347 62.627C32.347 62.627,23.381 53.404,23.381 53.404C23.381 53.404,11.891 45.774,6.046 50.469C0.202 55.165,8.770 62.417,8.770 62.417C8.770 62.417,10.431 65.512,19.752 76.206C28.891 86.690,40.271 96.629,37.926 94.043C42.959 99.593,44.036 110.000,44.036 110.000 Z"/>
</symbol>

<symbol id="zoom" viewBox="0 0 23 23">
<path fill-rule="evenodd" d="M13.000 15.500 C13.000 15.500,15.500 13.000,15.500 13.000C15.500 13.000,23.000 20.500,23.000 20.500C23.000 20.500,20.500 23.000,20.500 23.000C20.500 23.000,13.000 15.500,13.000 15.500 Z"/>
<path fill-rule="evenodd" d="M8.500 0.000 C13.194 0.000,17.000 3.806,17.000 8.500C17.000 13.194,13.194 17.000,8.500 17.000C3.806 17.000,0.000 13.194,0.000 8.500C0.000 3.806,3.806 0.000,8.500 0.000 ZM8.500 2.000 C12.090 2.000,15.000 4.910,15.000 8.500C15.000 12.090,12.090 15.000,8.500 15.000C4.910 15.000,2.000 12.090,2.000 8.500C2.000 4.910,4.910 2.000,8.500 2.000 Z"/>
</symbol>

<symbol id="onion" viewBox="0 0 16 12">
  <path fill-rule="evenodd" d="M2.462 6.000 C2.462 1.934,5.846 0.000,5.846 0.000C2.617 0.000,0.000 2.686,0.000 6.000C0.000 9.314,2.617 12.000,5.846 12.000C5.846 12.000,2.462 10.066,2.462 6.000 ZM10.154 0.000 C13.383 0.000,16.000 2.686,16.000 6.000C16.000 9.314,13.383 12.000,10.154 12.000C6.925 12.000,4.308 9.314,4.308 6.000C4.308 2.686,6.925 0.000,10.154 0.000 ZM10.154 2.526 C12.023 2.526,13.538 4.082,13.538 6.000C13.538 7.918,12.023 9.474,10.154 9.474C8.285 9.474,6.769 7.918,6.769 6.000C6.769 4.082,8.285 2.526,10.154 2.526 Z"/>
</symbol>

<!-- UI controls -->

<symbol id="tick" viewBox="0 0 10 8">
<path fill-rule="evenodd" d="M-0.000,4.000 L4.000,8.000 L10.000,2.000 L8.000,-0.000 L4.000,4.000 L2.000,2.000 L-0.000,4.000 Z"/>
</symbol>

<symbol id="nullcolor" viewBox="0 0 8 8">
<path fill-rule="evenodd" d="M4.000 0.000 C6.209 0.000,8.000 1.791,8.000 4.000C8.000 6.209,6.209 8.000,4.000 8.000C1.791 8.000,0.000 6.209,0.000 4.000C0.000 1.791,1.791 0.000,4.000 0.000 ZM4.000 1.000 C5.657 1.000,7.000 2.343,7.000 4.000C7.000 5.657,5.657 7.000,4.000 7.000C2.343 7.000,1.000 5.657,1.000 4.000C1.000 2.343,2.343 1.000,4.000 1.000 Z"/>
</symbol>

</svg>
